<?xml version="1.0" encoding="UTF-8" standalone="no"?><svg xmlns="http://www.w3.org/2000/svg" xmlns:xlink="http://www.w3.org/1999/xlink" contentScriptType="application/ecmascript" contentStyleType="text/css" height="106px" preserveAspectRatio="none" style="width:1256px;height:106px;" version="1.1" viewBox="0 0 1256 106" width="1256px" zoomAndPan="magnify"><defs><filter height="300%" id="f1pgq3xmlfupcy" width="300%" x="-1" y="-1"><feGaussianBlur result="blurOut" stdDeviation="2.0"/><feColorMatrix in="blurOut" result="blurOut2" type="matrix" values="0 0 0 0 0 0 0 0 0 0 0 0 0 0 0 0 0 0 .4 0"/><feOffset dx="4.0" dy="4.0" in="blurOut2" result="blurOut3"/><feBlend in="SourceGraphic" in2="blurOut3" mode="normal"/></filter></defs><g><ellipse cx="16" cy="53" fill="#000000" filter="url(#f1pgq3xmlfupcy)" rx="10" ry="10" style="stroke: none; stroke-width: 1.0;"/><rect fill="#FEFECE" filter="url(#f1pgq3xmlfupcy)" height="33.9688" rx="12.5" ry="12.5" style="stroke: #A80036; stroke-width: 1.5;" width="64" x="158" y="8"/><text fill="#000000" font-family="sans-serif" font-size="12" lengthAdjust="spacingAndGlyphs" textLength="44" x="168" y="29.1387">master</text><rect fill="#FEFECE" filter="url(#f1pgq3xmlfupcy)" height="33.9688" rx="12.5" ry="12.5" style="stroke: #A80036; stroke-width: 1.5;" width="134" x="123" y="62"/><text fill="#000000" font-family="sans-serif" font-size="12" lengthAdjust="spacingAndGlyphs" textLength="114" x="133" y="83.1387">&lt;feature branch&gt;</text><rect fill="#FEFECE" filter="url(#f1pgq3xmlfupcy)" height="33.9688" rx="12.5" ry="12.5" style="stroke: #A80036; stroke-width: 1.5;" width="40" x="394" y="8"/><text fill="#000000" font-family="sans-serif" font-size="12" lengthAdjust="spacingAndGlyphs" textLength="20" x="404" y="29.1387">Diff</text><rect fill="#FEFECE" filter="url(#f1pgq3xmlfupcy)" height="33.9688" rx="12.5" ry="12.5" style="stroke: #A80036; stroke-width: 1.5;" width="44" x="392" y="62"/><text fill="#000000" font-family="sans-serif" font-size="12" lengthAdjust="spacingAndGlyphs" textLength="20" x="402" y="83.1387">Diff</text><rect fill="#FEFECE" filter="url(#f1pgq3xmlfupcy)" height="33.9688" rx="12.5" ry="12.5" style="stroke: #A80036; stroke-width: 1.5;" width="89" x="477" y="8"/><text fill="#000000" font-family="sans-serif" font-size="12" lengthAdjust="spacingAndGlyphs" textLength="69" x="487" y="29.1387">Deploy Dev</text><rect fill="#FEFECE" filter="url(#f1pgq3xmlfupcy)" height="33.9688" rx="12.5" ry="12.5" style="stroke: #A80036; stroke-width: 1.5;" width="74" x="607" y="8"/><text fill="#000000" font-family="sans-serif" font-size="12" lengthAdjust="spacingAndGlyphs" textLength="54" x="617" y="29.1387">Test Dev</text><rect fill="#FEFECE" filter="url(#f1pgq3xmlfupcy)" height="33.9688" rx="12.5" ry="12.5" style="stroke: #A80036; stroke-width: 1.5;" width="120" x="722" y="8"/><text fill="#000000" font-family="sans-serif" font-size="12" lengthAdjust="spacingAndGlyphs" textLength="100" x="732" y="29.1387">Deploy NonProd</text><rect fill="#FEFECE" filter="url(#f1pgq3xmlfupcy)" height="33.9688" rx="12.5" ry="12.5" style="stroke: #A80036; stroke-width: 1.5;" width="105" x="883" y="8"/><text fill="#000000" font-family="sans-serif" font-size="12" lengthAdjust="spacingAndGlyphs" textLength="85" x="893" y="29.1387">Test NonProd</text><rect fill="#FEFECE" filter="url(#f1pgq3xmlfupcy)" height="33.9688" rx="12.5" ry="12.5" style="stroke: #A80036; stroke-width: 1.5;" width="95" x="1029" y="8"/><text fill="#000000" font-family="sans-serif" font-size="12" lengthAdjust="spacingAndGlyphs" textLength="75" x="1039" y="29.1387">Deploy Prod</text><rect fill="#FEFECE" filter="url(#f1pgq3xmlfupcy)" height="33.9688" rx="12.5" ry="12.5" style="stroke: #A80036; stroke-width: 1.5;" width="80" x="1165" y="8"/><text fill="#000000" font-family="sans-serif" font-size="12" lengthAdjust="spacingAndGlyphs" textLength="60" x="1175" y="29.1387">Test Prod</text><!--link start to master--><path d="M26.1071,51.3736 C50.1939,47.4975 111.9842,37.5543 152.4348,31.045 " fill="none" id="start-master" style="stroke: #A80036; stroke-width: 1.0;"/><polygon fill="#A80036" points="157.7488,30.1898,148.2276,27.6706,152.8123,30.9842,149.4987,35.5689,157.7488,30.1898" style="stroke: #A80036; stroke-width: 1.0;"/><text fill="#000000" font-family="sans-serif" font-size="11" lengthAdjust="spacingAndGlyphs" textLength="55" x="47" y="36.2104">git merge</text><!--link start to <feature branch>--><path d="M24.5643,58.4056 C30.3776,61.7867 38.3674,65.8881 46,68 C68.8027,74.3095 94.3604,77.4621 117.5438,78.9279 " fill="none" id="start-&lt;feature branch&gt;" style="stroke: #A80036; stroke-width: 1.0;"/><polygon fill="#A80036" points="122.7609,79.2321,114.0091,74.7148,117.7694,78.941,113.5433,82.7013,122.7609,79.2321" style="stroke: #A80036; stroke-width: 1.0;"/><text fill="#000000" font-family="sans-serif" font-size="11" lengthAdjust="spacingAndGlyphs" textLength="46" x="51.5" y="65.2104">git push</text><!--link master to Diff--><path d="M222.0937,25 C267.0143,25 347.7179,25 388.6736,25 " fill="none" id="master-Diff" style="stroke: #A80036; stroke-width: 1.0;"/><polygon fill="#A80036" points="393.9429,25,384.9429,21,388.9429,25,384.9429,29,393.9429,25" style="stroke: #A80036; stroke-width: 1.0;"/><text fill="#000000" font-family="sans-serif" font-size="11" lengthAdjust="spacingAndGlyphs" textLength="93" x="278" y="22.2104">triggers pipeline</text><!--link <feature branch> to Diff --><path d="M257.2074,79 C300.5756,79 354.6717,79 386.6568,79 " fill="none" id="&lt;feature branch&gt;-Diff " style="stroke: #A80036; stroke-width: 1.0;"/><polygon fill="#A80036" points="391.9796,79,382.9796,75,386.9796,79,382.9796,83,391.9796,79" style="stroke: #A80036; stroke-width: 1.0;"/><text fill="#000000" font-family="sans-serif" font-size="11" lengthAdjust="spacingAndGlyphs" textLength="93" x="278" y="76.2104">triggers pipeline</text><!--link Diff to Deploy Dev--><path d="M434.2199,25 C444.8512,25 458.3962,25 471.6265,25 " fill="none" id="Diff-Deploy Dev" style="stroke: #A80036; stroke-width: 1.0;"/><polygon fill="#A80036" points="476.8709,25,467.8709,21,471.8709,25,467.8709,29,476.8709,25" style="stroke: #A80036; stroke-width: 1.0;"/><!--link Deploy Dev to Test Dev--><path d="M566.0718,25 C577.6994,25 590.1949,25 601.7008,25 " fill="none" id="Deploy Dev-Test Dev" style="stroke: #A80036; stroke-width: 1.0;"/><polygon fill="#A80036" points="606.9109,25,597.9109,21,601.9109,25,597.9109,29,606.9109,25" style="stroke: #A80036; stroke-width: 1.0;"/><!--link Test Dev to Deploy NonProd--><path d="M681.3448,25 C692.2406,25 704.4809,25 716.5745,25 " fill="none" id="Test Dev-Deploy NonProd" style="stroke: #A80036; stroke-width: 1.0;"/><polygon fill="#A80036" points="721.7441,25,712.7441,21,716.7441,25,712.7441,29,721.7441,25" style="stroke: #A80036; stroke-width: 1.0;"/><!--link Deploy NonProd to Test NonProd--><path d="M842.2267,25 C853.8806,25 866.068,25 877.644,25 " fill="none" id="Deploy NonProd-Test NonProd" style="stroke: #A80036; stroke-width: 1.0;"/><polygon fill="#A80036" points="882.9156,25,873.9156,21,877.9156,25,873.9156,29,882.9156,25" style="stroke: #A80036; stroke-width: 1.0;"/><!--link Test NonProd to Deploy Prod--><path d="M988.0032,25 C999.546,25 1011.7785,25 1023.3467,25 " fill="none" id="Test NonProd-Deploy Prod" style="stroke: #A80036; stroke-width: 1.0;"/><polygon fill="#A80036" points="1028.6101,25,1019.6101,21,1023.6101,25,1019.6101,29,1028.6101,25" style="stroke: #A80036; stroke-width: 1.0;"/><!--link Deploy Prod to Test Prod--><path d="M1124.3487,25 C1135.8582,25 1148.1203,25 1159.5184,25 " fill="none" id="Deploy Prod-Test Prod" style="stroke: #A80036; stroke-width: 1.0;"/><polygon fill="#A80036" points="1164.6889,25,1155.6889,21,1159.6889,25,1155.6889,29,1164.6889,25" style="stroke: #A80036; stroke-width: 1.0;"/><!--
@startuml
left to right direction
(*) - -> [git merge] "master"
(*) - -> [git push] "<feature branch>"


"master" - ->  [triggers pipeline] "Diff"



"<feature branch>" - -> [triggers pipeline] "Diff "

"Diff" - -> "Deploy Dev"
"Deploy Dev" - -> "Test Dev"
"Test Dev" - -> "Deploy NonProd"
"Deploy NonProd" - -> "Test NonProd"
"Test NonProd" - -> "Deploy Prod"
"Deploy Prod" - -> "Test Prod"
@enduml

PlantUML version 1.2019.04(Fri Mar 29 15:44:36 UTC 2019)
(GPL source distribution)
Java Runtime: OpenJDK Runtime Environment
JVM: OpenJDK 64-Bit Server VM
Java Version: 1.8.0_201-heroku-b09
Operating System: Linux
OS Version: 4.4.0-1048-aws
Default Encoding: UTF-8
Language: en
Country: US
--></g></svg>