<?xml version="1.0" encoding="UTF-8" standalone="no"?><svg xmlns="http://www.w3.org/2000/svg" xmlns:xlink="http://www.w3.org/1999/xlink" contentScriptType="application/ecmascript" contentStyleType="text/css" height="106px" preserveAspectRatio="none" style="width:1247px;height:106px;" version="1.1" viewBox="0 0 1247 106" width="1247px" zoomAndPan="magnify"><defs><filter height="300%" id="f6bqw731pf730" width="300%" x="-1" y="-1"><feGaussianBlur result="blurOut" stdDeviation="2.0"/><feColorMatrix in="blurOut" result="blurOut2" type="matrix" values="0 0 0 0 0 0 0 0 0 0 0 0 0 0 0 0 0 0 .4 0"/><feOffset dx="4.0" dy="4.0" in="blurOut2" result="blurOut3"/><feBlend in="SourceGraphic" in2="blurOut3" mode="normal"/></filter></defs><g><ellipse cx="16" cy="53" fill="#000000" filter="url(#f6bqw731pf730)" rx="10" ry="10" style="stroke: none; stroke-width: 1.0;"/><rect fill="#FEFECE" filter="url(#f6bqw731pf730)" height="33.9688" rx="12.5" ry="12.5" style="stroke: #A80036; stroke-width: 1.5;" width="64" x="149" y="8"/><text fill="#000000" font-family="sans-serif" font-size="12" lengthAdjust="spacingAndGlyphs" textLength="44" x="159" y="29.1387">master</text><rect fill="#FEFECE" filter="url(#f6bqw731pf730)" height="33.9688" rx="12.5" ry="12.5" style="stroke: #A80036; stroke-width: 1.5;" width="134" x="114" y="62"/><text fill="#000000" font-family="sans-serif" font-size="12" lengthAdjust="spacingAndGlyphs" textLength="114" x="124" y="83.1387">&lt;feature branch&gt;</text><rect fill="#FEFECE" filter="url(#f6bqw731pf730)" height="33.9688" rx="12.5" ry="12.5" style="stroke: #A80036; stroke-width: 1.5;" width="40" x="385" y="8"/><text fill="#000000" font-family="sans-serif" font-size="12" lengthAdjust="spacingAndGlyphs" textLength="20" x="395" y="29.1387">Diff</text><rect fill="#FEFECE" filter="url(#f6bqw731pf730)" height="33.9688" rx="12.5" ry="12.5" style="stroke: #A80036; stroke-width: 1.5;" width="44" x="383" y="62"/><text fill="#000000" font-family="sans-serif" font-size="12" lengthAdjust="spacingAndGlyphs" textLength="20" x="393" y="83.1387">Diff</text><rect fill="#FEFECE" filter="url(#f6bqw731pf730)" height="33.9688" rx="12.5" ry="12.5" style="stroke: #A80036; stroke-width: 1.5;" width="89" x="468" y="8"/><text fill="#000000" font-family="sans-serif" font-size="12" lengthAdjust="spacingAndGlyphs" textLength="69" x="478" y="29.1387">Deploy Dev</text><rect fill="#FEFECE" filter="url(#f6bqw731pf730)" height="33.9688" rx="12.5" ry="12.5" style="stroke: #A80036; stroke-width: 1.5;" width="74" x="598" y="8"/><text fill="#000000" font-family="sans-serif" font-size="12" lengthAdjust="spacingAndGlyphs" textLength="54" x="608" y="29.1387">Test Dev</text><rect fill="#FEFECE" filter="url(#f6bqw731pf730)" height="33.9688" rx="12.5" ry="12.5" style="stroke: #A80036; stroke-width: 1.5;" width="120" x="713" y="8"/><text fill="#000000" font-family="sans-serif" font-size="12" lengthAdjust="spacingAndGlyphs" textLength="100" x="723" y="29.1387">Deploy NonProd</text><rect fill="#FEFECE" filter="url(#f6bqw731pf730)" height="33.9688" rx="12.5" ry="12.5" style="stroke: #A80036; stroke-width: 1.5;" width="105" x="874" y="8"/><text fill="#000000" font-family="sans-serif" font-size="12" lengthAdjust="spacingAndGlyphs" textLength="85" x="884" y="29.1387">Test NonProd</text><rect fill="#FEFECE" filter="url(#f6bqw731pf730)" height="33.9688" rx="12.5" ry="12.5" style="stroke: #A80036; stroke-width: 1.5;" width="95" x="1020" y="8"/><text fill="#000000" font-family="sans-serif" font-size="12" lengthAdjust="spacingAndGlyphs" textLength="75" x="1030" y="29.1387">Deploy Prod</text><rect fill="#FEFECE" filter="url(#f6bqw731pf730)" height="33.9688" rx="12.5" ry="12.5" style="stroke: #A80036; stroke-width: 1.5;" width="80" x="1156" y="8"/><text fill="#000000" font-family="sans-serif" font-size="12" lengthAdjust="spacingAndGlyphs" textLength="60" x="1166" y="29.1387">Test Prod</text><!--link start to master--><path d="M26.3215,51.2485 C49.3459,47.3413 105.8611,37.7509 143.8188,31.3095 " fill="none" id="start-master" style="stroke: #A80036; stroke-width: 1.0;"/><polygon fill="#A80036" points="148.8146,30.4618,139.2721,28.0243,143.8851,31.2985,140.6109,35.9115,148.8146,30.4618" style="stroke: #A80036; stroke-width: 1.0;"/><text fill="#000000" font-family="sans-serif" font-size="11" lengthAdjust="spacingAndGlyphs" textLength="46" x="47" y="36.2104">git push</text><!--link start to <feature branch>--><path d="M24.5679,58.3929 C30.3827,61.7686 38.3728,65.8688 46,68 C65.9388,73.5714 88.1299,76.6117 108.666,78.2029 " fill="none" id="start-&lt;feature branch&gt;" style="stroke: #A80036; stroke-width: 1.0;"/><polygon fill="#A80036" points="113.849,78.5769,105.1602,73.9395,108.862,78.217,104.5845,81.9188,113.849,78.5769" style="stroke: #A80036; stroke-width: 1.0;"/><text fill="#000000" font-family="sans-serif" font-size="11" lengthAdjust="spacingAndGlyphs" textLength="46" x="47" y="65.2104">git push</text><!--link master to Diff--><path d="M213.0937,25 C258.0143,25 338.7179,25 379.6736,25 " fill="none" id="master-Diff" style="stroke: #A80036; stroke-width: 1.0;"/><polygon fill="#A80036" points="384.9429,25,375.9429,21,379.9429,25,375.9429,29,384.9429,25" style="stroke: #A80036; stroke-width: 1.0;"/><text fill="#000000" font-family="sans-serif" font-size="11" lengthAdjust="spacingAndGlyphs" textLength="93" x="269" y="22.2104">triggers pipeline</text><!--link <feature branch> to Diff --><path d="M248.2074,79 C291.5756,79 345.6717,79 377.6568,79 " fill="none" id="&lt;feature branch&gt;-Diff " style="stroke: #A80036; stroke-width: 1.0;"/><polygon fill="#A80036" points="382.9796,79,373.9796,75,377.9796,79,373.9796,83,382.9796,79" style="stroke: #A80036; stroke-width: 1.0;"/><text fill="#000000" font-family="sans-serif" font-size="11" lengthAdjust="spacingAndGlyphs" textLength="93" x="269" y="76.2104">triggers pipeline</text><!--link Diff to Deploy Dev--><path d="M425.2199,25 C435.8512,25 449.3962,25 462.6265,25 " fill="none" id="Diff-Deploy Dev" style="stroke: #A80036; stroke-width: 1.0;"/><polygon fill="#A80036" points="467.8709,25,458.8709,21,462.8709,25,458.8709,29,467.8709,25" style="stroke: #A80036; stroke-width: 1.0;"/><!--link Deploy Dev to Test Dev--><path d="M557.0718,25 C568.6994,25 581.1949,25 592.7008,25 " fill="none" id="Deploy Dev-Test Dev" style="stroke: #A80036; stroke-width: 1.0;"/><polygon fill="#A80036" points="597.9109,25,588.9109,21,592.9109,25,588.9109,29,597.9109,25" style="stroke: #A80036; stroke-width: 1.0;"/><!--link Test Dev to Deploy NonProd--><path d="M672.3448,25 C683.2406,25 695.4809,25 707.5745,25 " fill="none" id="Test Dev-Deploy NonProd" style="stroke: #A80036; stroke-width: 1.0;"/><polygon fill="#A80036" points="712.7441,25,703.7441,21,707.7441,25,703.7441,29,712.7441,25" style="stroke: #A80036; stroke-width: 1.0;"/><!--link Deploy NonProd to Test NonProd--><path d="M833.2267,25 C844.8806,25 857.068,25 868.644,25 " fill="none" id="Deploy NonProd-Test NonProd" style="stroke: #A80036; stroke-width: 1.0;"/><polygon fill="#A80036" points="873.9156,25,864.9156,21,868.9156,25,864.9156,29,873.9156,25" style="stroke: #A80036; stroke-width: 1.0;"/><!--link Test NonProd to Deploy Prod--><path d="M979.0032,25 C990.546,25 1002.7785,25 1014.3467,25 " fill="none" id="Test NonProd-Deploy Prod" style="stroke: #A80036; stroke-width: 1.0;"/><polygon fill="#A80036" points="1019.6101,25,1010.6101,21,1014.6101,25,1010.6101,29,1019.6101,25" style="stroke: #A80036; stroke-width: 1.0;"/><!--link Deploy Prod to Test Prod--><path d="M1115.3487,25 C1126.8582,25 1139.1203,25 1150.5184,25 " fill="none" id="Deploy Prod-Test Prod" style="stroke: #A80036; stroke-width: 1.0;"/><polygon fill="#A80036" points="1155.6889,25,1146.6889,21,1150.6889,25,1146.6889,29,1155.6889,25" style="stroke: #A80036; stroke-width: 1.0;"/><!--
@startuml
left to right direction
(*) - -> [git push] "master"
(*) - -> [git push] "<feature branch>"


"master" - ->  [triggers pipeline] "Diff"



"<feature branch>" - -> [triggers pipeline] "Diff "

"Diff" - -> "Deploy Dev"
"Deploy Dev" - -> "Test Dev"
"Test Dev" - -> "Deploy NonProd"
"Deploy NonProd" - -> "Test NonProd"
"Test NonProd" - -> "Deploy Prod"
"Deploy Prod" - -> "Test Prod"
@enduml

PlantUML version 1.2019.04(Fri Mar 29 15:44:36 UTC 2019)
(GPL source distribution)
Java Runtime: OpenJDK Runtime Environment
JVM: OpenJDK 64-Bit Server VM
Java Version: 1.8.0_201-heroku-b09
Operating System: Linux
OS Version: 4.4.0-1048-aws
Default Encoding: UTF-8
Language: en
Country: US
--></g></svg>