<?xml version="1.0" standalone="no"?>
<!DOCTYPE svg PUBLIC "-//W3C//DTD SVG 1.1//EN"
  "http://www.w3.org/Graphics/SVG/1.1/DTD/svg11.dtd">
<svg version="1.1" xmlns="http://www.w3.org/2000/svg" xmlns:xlink="http://www.w3.org/1999/xlink" width="1920" height="1080" viewBox="-1040.888888888889 -32 1889.7777777777778 1063" id="ccdiagram"><filter id="grayscale"><feColorMatrix type="matrix" values="0.3333 0.3333 0.3333 0 0 0.3333 0.3333 0.3333 0 0 0.3333 0.3333 0.3333 0 0 0 0 0 1 0"></feColorMatrix></filter><defs><style type="text/css">@import url(&#x27;https://fonts.googleapis.com/css?family=Open+Sans:400,700|Inconsolata:400&#x27;);</style></defs><g><g style="pointer-events:none"><g><pattern id="gridPatternMinor" x="0" y="37" width="128" height="74" patternUnits="userSpaceOnUse"><path d="M 0 0 L 128 74" stroke="#eee" stroke-width="1"></path><path d="M 128 0 L 0 74" stroke="#eee" stroke-width="1"></path></pattern><polygon points="0 0, 768 444, -192 999, -960 555" fill="url(#gridPatternMinor)"></polygon></g><polygon points="-960 555, -960 565, -192 1009, -192 999" stroke-linejoin="round" stroke="#54626f" stroke-width="1" fill="#f9f9f9"></polygon><polygon points="-192 1009, 768 454, 768 444, -192 999" stroke-linejoin="round" stroke="#54626f" stroke-width="1" fill="#e2e2e2"></polygon></g><g pointer-events="auto"><g opacity="1"><g><g><polygon points="-416 352, 160 685, 160 722, -160 907, -224 907, -800 574, -800 537, -480 352" fill="#ffffff" stroke-width="2" stroke="#818181"></polygon><polygon points="-448 370, 128 703, -192 888, -768 555" fill="#e6e7e8" stroke-width="0" stroke="#818181"></polygon></g></g></g><g opacity="1"><g><g><polygon points="-416 389, -224 500, -224 537, -480 685, -544 685, -736 574, -736 537, -480 389" fill="#ffffff" stroke-width="2" stroke="#818181"></polygon><polygon points="-448 407, -256 518, -512 666, -704 555" fill="#e6e7e8" stroke-width="0" stroke="#818181"></polygon></g></g></g><g opacity="1"><g><g><polygon points="-96 574, 96 685, 96 722, -160 870, -224 870, -416 759, -416 722, -160 574" fill="#ffffff" stroke-width="2" stroke="#818181"></polygon><polygon points="-128 592, 64 703, -192 851, -384 740" fill="#e6e7e8" stroke-width="0" stroke="#818181"></polygon></g></g></g><g opacity="1"><g><g><polygon points="-96 574, 96 685, 96 722, -160 870, -224 870, -416 759, -416 722, -160 574" fill="#ffffff" stroke-width="2" stroke="#818181"></polygon><polygon points="-128 592, 64 703, -192 851, -384 740" fill="#e6e7e8" stroke-width="0" stroke="#818181"></polygon></g></g></g></g><g style="pointer-events:none"><g><pattern id="gridPatternMajor" x="0" y="37" width="128" height="74" patternUnits="userSpaceOnUse"><path d="M 64 0 L 128 37 64 74 0 37 z" stroke="#54626f" stroke-width="1" fill="none"></path></pattern><polygon points="0 0, 768 444, -192 999, -960 555" fill="url(#gridPatternMajor)"></polygon></g></g><g pointer-events="auto"></g><g></g><g pointer-events="auto"></g><g></g><g pointer-events="auto"><g opacity="1"><g id="451a17e1-0b82-4f9c-98e7-262c10ff2d79"><svg x="-160" y="333" overflow="visible"><polygon points="0 0, 298 172, 234 209, -64 37" fill="#f5b720"></polygon><polygon points="0 0, 298 172, 234 209, -64 37" fill="none" stroke-width="20" stroke="#f5b720" opacity="1"></polygon><g cursor="nwse-resize"><polygon points="0 0, -19 -11, 13 -30, -83 -11, -115 44, -83 26, -64 37" fill="#f5b720"></polygon><polygon points="298 172, 317 184, 349 165, 317 221, 221 239, 253 221, 234 209" fill="#f5b720"></polygon></g></svg></g></g><g opacity="1"></g><g opacity="1"></g><g opacity="1"></g><g opacity="1"></g><g opacity="1"></g><g opacity="1"></g></g><g pointer-events="none"></g><g pointer-events="auto"><g><g cursor="cell"><line x1="283" y1="243" x2="219" y2="280" stroke="red" stroke-width="8" opacity="0"></line><line x1="283" y1="243" x2="219" y2="280" stroke="#000000" stroke-width="2" stroke-linecap="round"></line><polygon points="209 286, 235 281, 222 279, 219 271, 209 286" stroke-linejoin="round" fill="#000000" stroke="#000000" stroke-width="1"></polygon></g></g><g><g><g cursor="cell"><line x1="-86" y1="327" x2="-80" y2="324" stroke="red" stroke-width="8" opacity="0"></line><line x1="-86" y1="327" x2="-80" y2="324" stroke="#000000" stroke-width="2" stroke-linecap="none"></line><polygon points="-96 333, -70 328, -84 326, -87 318, -96 333" stroke-linejoin="round" fill="#000000" stroke="#000000" stroke-width="1"></polygon></g><g cursor="cell"><line x1="-48" y1="324" x2="-80" y2="324" stroke="red" stroke-width="8" opacity="0"></line><line x1="-48" y1="324" x2="-80" y2="324" stroke="#000000" stroke-width="2" stroke-linecap="round"></line></g><g cursor="cell"><line x1="148" y1="463" x2="154" y2="459" stroke="red" stroke-width="8" opacity="0"></line><line x1="148" y1="463" x2="154" y2="459" stroke="#000000" stroke-width="2" stroke-linecap="none"></line><polygon points="138 468, 164 463, 151 461, 148 454, 138 468" stroke-linejoin="round" fill="#000000" stroke="#000000" stroke-width="1"></polygon></g><g cursor="cell"><line x1="154" y1="441" x2="154" y2="459" stroke="red" stroke-width="8" opacity="0"></line><line x1="154" y1="441" x2="154" y2="459" stroke="#000000" stroke-width="2" stroke-linecap="round"></line></g><g cursor="cell"><line x1="-48" y1="324" x2="154" y2="441" stroke="red" stroke-width="8" opacity="0"></line><line x1="-48" y1="324" x2="154" y2="441" stroke="#000000" stroke-width="2" stroke-linecap="round"></line></g><g cursor="cell"><line x1="128" y1="333" x2="48" y2="379" stroke="red" stroke-width="8" opacity="0"></line><line x1="128" y1="333" x2="48" y2="379" stroke="#000000" stroke-width="2" stroke-linecap="round"></line></g></g></g><g><g cursor="cell"><line x1="42" y1="524" x2="-513" y2="526" stroke="red" stroke-width="8" opacity="0"></line><line x1="42" y1="524" x2="-513" y2="526" stroke="#000000" stroke-width="2" stroke-linecap="round"></line><polygon points="-527 526, -502 533, -509 526, -502 520, -527 526" stroke-linejoin="round" fill="#000000" stroke="#000000" stroke-width="1"></polygon></g></g><g><g cursor="cell"><line x1="-192" y1="389" x2="-419" y2="467" stroke="red" stroke-width="8" opacity="0"></line><line x1="-192" y1="389" x2="-419" y2="467" stroke="#000000" stroke-width="2" stroke-linecap="round"></line><polygon points="-431 471, -404 469, -415 466, -415 458, -431 471" stroke-linejoin="round" fill="#000000" stroke="#000000" stroke-width="1"></polygon></g></g><g><g cursor="cell"><line x1="-192" y1="389" x2="-322" y2="413" stroke="red" stroke-width="8" opacity="0"></line><line x1="-192" y1="389" x2="-322" y2="413" stroke="#000000" stroke-width="2" stroke-linecap="round"></line><polygon points="-335 415, -308 417, -318 412, -315 405, -335 415" stroke-linejoin="round" fill="#000000" stroke="#000000" stroke-width="1"></polygon></g></g></g><g pointer-events="auto"><g opacity="1"><g id="7758cf95-737e-44ab-bf1e-1657370ef455" transform="translate(0 0)"><svg x="256" y="111" height="148.142" width="93" viewBox="0 0 24.606 39.196"><g transform="translate(-90.671 -137.288)"><path d="M91.985 141.821l14.632 8.448 7.316-4.224-14.632-8.447z" fill="#ececed" fill-rule="evenodd"></path><path d="M91.985 165.958l-1.045 1.81v-1.207z" fill="#d2d2d4" fill-rule="evenodd"></path><path d="M91.985 165.958l14.632 8.447-1.046 1.81-14.566-8.56zM106.617 174.405l-1.046 1.81h2.09z" fill="#d2d2d4" fill-rule="evenodd"></path><path d="M91.985 141.821v24.137l14.632 8.447V150.27z" fill="#d2d2d4" fill-rule="evenodd"></path><path d="M106.617 174.405l1.045 1.81 7.316-4.223v-1.207l-1.045-.603z" fill="#b8b8bb" fill-rule="evenodd"></path><path d="M106.617 150.27l7.316-4.225v24.137l-7.316 4.223z" fill="#b8b8bb" fill-rule="evenodd"></path><g fill="none" stroke="#83838a"><path d="M113.933 170.182l-7.316 4.223-14.632-8.447-1.045 1.81M91.985 141.821l14.632 8.448 7.316-4.224M106.617 150.27v24.135M105.571 176.216l1.046-1.81 1.045 1.81M113.933 170.182l1.045 1.81" stroke-width=".26818"></path></g><path d="M90.94 167.768v-1.207l1.045-.603V141.82l7.316-4.223 14.632 8.447v24.137l1.045.603v1.207l-7.316 4.224h-2.09z" fill="none" stroke="#000000" stroke-width=".529"></path><ellipse cx="141.009" cy="74.394" fill="#4286c5" rx="6.047" ry="4.714" transform="matrix(.19572 .98066 .96381 .26658 0 0)"></ellipse><ellipse cx="141.009" cy="74.394" fill="#fff" rx="5.037" ry="3.927" transform="matrix(.19572 .98066 .96381 .26658 0 0)"></ellipse><path d="M99.03 153.239c-3.067 2.89-1.034 7.41.27 9.702" fill="none" stroke="#4286c5" stroke-width=".51973284"></path><g transform="translate(374.17 163.896) scale(.26818)"><ellipse cx="272.14" cy="-1124.64" fill="#4286c5" rx="3.335" ry="2.648" transform="matrix(.19572 .98066 .96381 .26658 0 0)"></ellipse><ellipse cx="290.38" cy="-1128.297" fill="#4286c5" rx="3.687" ry="2.835" transform="matrix(.19572 .98066 .96381 .26658 0 0)"></ellipse><ellipse cx="290.282" cy="-1113.221" fill="#4286c5" rx="3.51" ry="2.717" transform="matrix(.19572 .98066 .96381 .26658 0 0)"></ellipse><path d="M-1033.087-41.48c4.26 21.344 17.38 30.943 23.61 33.65M-1039.896-25.075c12.675 15.122 22.864 16.4 30.106 8.948" fill="none" stroke="#4286c5" stroke-width="1.938"></path></g></g></svg></g></g><g opacity="1"><g id="79761c00-659f-4f71-a506-69ae11571e8f" transform="translate(0 0)"><svg x="112" y="250" height="94" width="97" fill-rule="evenodd"><path d="M0 18.6v18.6l32.333 18.6h32.334L97 37.2V18.6L64.667 0H32.333L0 18.6z" fill="#ececed"></path><path d="M64.667 55.8L97 37.2v37.2L64.667 93V55.8z" fill="#b8b8bb"></path><path d="M32.333 55.8h32.334V93H32.333V55.8zM0 37.2v37.2L32.333 93V55.8L0 37.2z" fill="#d2d2d4"></path><g fill="none" stroke="#83838a" stroke-width="1.04"><path d="M.955 37.877L32.333 55.8h32.334l31.378-17.923M32.333 55.8v36.211M64.667 55.8v36.574"></path></g><path d="M97 18.6v55.8L64.667 93H32.333L0 74.4V18.6L32.333 0h32.334L97 18.6zM32.865 1.989L1.989 19.751v53.498l30.876 17.762h31.27l30.876-17.762V19.751L64.135 1.989h-31.27z" fill="#000000"></path><path d="M69.912 15.583c11.818 6.798 11.818 17.836 0 24.635-11.817 6.798-31.007 6.798-42.824 0-11.818-6.799-11.818-17.837 0-24.635 11.817-6.799 31.007-6.799 42.824 0z" fill="#4286c5"></path><path d="M49.584 14.774c1.824 1.049 1.824 2.753 0 3.802-1.824 1.05-4.786 1.05-6.61 0-1.824-1.049-1.824-2.753 0-3.802 1.824-1.05 4.786-1.05 6.61 0zM60.451 21.025c1.825 1.049 1.825 2.753 0 3.803-1.824 1.049-4.786 1.049-6.61 0-1.824-1.05-1.824-2.754 0-3.803s4.786-1.049 6.61 0zM71.319 27.276c1.824 1.05 1.824 2.754 0 3.803-1.825 1.049-4.787 1.049-6.611 0-1.824-1.049-1.824-2.753 0-3.803 1.824-1.049 4.786-1.049 6.611 0zM38.497 33.654c1.824 1.05 1.824 2.754 0 3.803-1.825 1.05-4.787 1.05-6.611 0-1.824-1.049-1.824-2.753 0-3.803 1.824-1.049 4.786-1.049 6.611 0z" fill="#fff"></path><path d="M47.458 15.878c.453.26.393.717-.133 1.02-.526.303-1.32.337-1.773.076-.452-.26-.392-.717.133-1.019.526-.303 1.321-.337 1.773-.077z" fill="#fff"></path><path d="M48.111 15.621c1.012.582 1.012 1.526 0 2.108-1.011.582-2.653.582-3.664 0-1.012-.582-1.012-1.526 0-2.108 1.011-.582 2.653-.582 3.664 0zM58.978 21.872c1.012.582 1.012 1.527 0 2.108-1.011.582-2.653.582-3.664 0-1.012-.581-1.012-1.526 0-2.108 1.011-.581 2.653-.581 3.664 0zM69.846 28.124c1.011.581 1.011 1.526 0 2.108-1.012.582-2.654.582-3.665 0-1.011-.582-1.011-1.527 0-2.108 1.011-.582 2.653-.582 3.665 0z" fill="#4286c5"></path><path d="M37.024 34.502c1.011.582 1.011 1.526 0 2.108-1.012.582-2.654.582-3.665 0-1.011-.582-1.011-1.526 0-2.108 1.011-.582 2.653-.582 3.665 0z" fill="#fff"></path><g fill="#fff"><path d="M52.301 25.172L37.719 33.56l.482.834 14.584-8.388-.484-.834z"></path><path d="M46.993 26.089l6.654-1.146-4.324 5.168c.189-1.691-.757-3.313-2.33-4.022z" stroke="#fff" stroke-width=".36"></path></g><g fill="#fff"><path d="M43.488 19.937l-6.057 13.797.886.387 6.056-13.798-.885-.386z"></path><path d="M39.76 23.812l4.676-4.854-.405 6.716c-.855-1.474-2.582-2.221-4.271-1.862z" stroke="#fff" stroke-width=".36"></path></g><g fill="#fff"><path d="M61.953 30.061l-23.985 3.483.14.955 23.985-3.486-.14-.952z"></path><path d="M56.68 28.957l6.608 1.387-5.936 3.209c.804-1.503.526-3.358-.672-4.596z" stroke="#fff" stroke-width=".36"></path></g><path d="M37.96 33.977l13.12-7.547M37.873 33.927l5.792-13.134M38.037 34.022l22.478-3.281" fill="#fff" stroke="#fff" stroke-width="1.93"></path></svg></g></g><g opacity="1"><g id="65315815-b9bd-4082-afd0-7dcc756a9800" transform="translate(0 0)"><svg x="-224" y="296" height="111" width="128" fill-rule="evenodd"><path d="M64 74v37l64-37V37L64 74z" fill="#b8b8bb"></path><path d="M0 37v37l64 37V74L0 37z" fill="#d2d2d4"></path><path d="M0 37L64 0l64 37-64 37L0 37z" fill="#ececed"></path><path d="M64 73.407l62.111-35.86.514.889-62.487 36.078h-.276L.743 38.072l.514-.89L64 73.407z" fill="#83838a"></path><path d="M63.486 74h1.027v36h-1.027z" fill="#83838a"></path><path d="M128 37v37l-64 37L0 74V37L64 0l64 37zM2.054 38.185v34.63L64 108.627l61.946-35.812v-34.63L64 2.373 2.054 38.185z" fill="#000000"></path></svg><svg x="-169" y="314" width="60" height="35" style="overflow:visible;cursor:default"><rect transform="matrix(0.707 0.409 -0.707 0.409 0 0)" width="60" height="35" rx="5" ry="5" fill="#4286c5"></rect><text transform="matrix(0.707 0.409 -0.707 0.409 0 0)" font-family="Open Sans" font-size="20pt" text-anchor="middle" x="50%" y="75%" fill="#ffffff"><tspan>C5</tspan></text></svg></g></g><g opacity="1"><g id="80297fca-3abe-4a3a-8277-3395c7e93d31" transform="translate(0 0)"><svg x="10" y="431" height="111" width="128" fill-rule="evenodd"><path d="M64 74v37l64-37V37L64 74z" fill="#b8b8bb"></path><path d="M0 37v37l64 37V74L0 37z" fill="#d2d2d4"></path><path d="M0 37L64 0l64 37-64 37L0 37z" fill="#ececed"></path><path d="M64 73.407l62.111-35.86.514.889-62.487 36.078h-.276L.743 38.072l.514-.89L64 73.407z" fill="#83838a"></path><path d="M63.486 74h1.027v36h-1.027z" fill="#83838a"></path><path d="M128 37v37l-64 37L0 74V37L64 0l64 37zM2.054 38.185v34.63L64 108.627l61.946-35.812v-34.63L64 2.373 2.054 38.185z" fill="#000000"></path></svg><svg x="65" y="449" width="60" height="35" style="overflow:visible;cursor:default"><rect transform="matrix(0.707 0.409 -0.707 0.409 0 0)" width="60" height="35" rx="5" ry="5" fill="#4286c5"></rect><text transform="matrix(0.707 0.409 -0.707 0.409 0 0)" font-family="Open Sans" font-size="20pt" text-anchor="middle" x="50%" y="75%" fill="#ffffff"><tspan>M5</tspan></text></svg></g></g><g opacity="1"><g id="f888bbbf-aa6d-4809-9081-2a6beb102e8e" transform="translate(0 0)"><g><polygon points="-384 407, -320 444, -384 481, -448 444" fill="#ececed"></polygon><polygon points="-448 481, -384 518, -384 481, -448 444" fill="#d2d2d4" stroke="#83838a"></polygon><polygon points="-384 518, -320 481, -320 444, -384 481" fill="#b8b8bb" stroke="#83838a"></polygon><polygon points="-384 407, -448 444, -448 481, -384 518, -320 481, -320 444" fill="none" stroke="#000000" stroke-width="2"></polygon></g></g></g><g opacity="1"><g id="57ae3f2e-e346-4f81-99a5-9c6fea6636b6" transform="translate(0 0)"><g><polygon points="-64 592, 0 629, -64 666, -128 629" fill="#ececed"></polygon><polygon points="-128 666, -64 703, -64 666, -128 629" fill="#d2d2d4" stroke="#83838a"></polygon><polygon points="-64 703, 0 666, 0 629, -64 666" fill="#b8b8bb" stroke="#83838a"></polygon><polygon points="-64 592, -128 629, -128 666, -64 703, 0 666, 0 629" fill="none" stroke="#000000" stroke-width="2"></polygon></g></g></g><g opacity="1"><g id="f6b4374a-6261-42e0-98d3-85e99e47fba4" transform="translate(0 0)"><g><polygon points="-480 463, -416 500, -480 537, -544 500" fill="#ececed"></polygon><polygon points="-544 537, -480 574, -480 537, -544 500" fill="#d2d2d4" stroke="#83838a"></polygon><polygon points="-480 574, -416 537, -416 500, -480 537" fill="#b8b8bb" stroke="#83838a"></polygon><polygon points="-480 463, -544 500, -544 537, -480 574, -416 537, -416 500" fill="none" stroke="#000000" stroke-width="2"></polygon></g></g></g><g opacity="1"><g id="ca6e28df-0722-4ead-8cff-9f82291d24f6" transform="translate(0 0)"><g><polygon points="-160 648, -96 685, -160 722, -224 685" fill="#ececed"></polygon><polygon points="-224 722, -160 759, -160 722, -224 685" fill="#d2d2d4" stroke="#83838a"></polygon><polygon points="-160 759, -96 722, -96 685, -160 722" fill="#b8b8bb" stroke="#83838a"></polygon><polygon points="-160 648, -224 685, -224 722, -160 759, -96 722, -96 685" fill="none" stroke="#000000" stroke-width="2"></polygon></g></g></g><g opacity="1"><g id="d51974e9-6c57-4448-bd5c-0430f0f759bb" transform="translate(0 0)"><g><polygon points="-576 518, -512 555, -576 592, -640 555" fill="#ececed"></polygon><polygon points="-640 592, -576 629, -576 592, -640 555" fill="#d2d2d4" stroke="#83838a"></polygon><polygon points="-576 629, -512 592, -512 555, -576 592" fill="#b8b8bb" stroke="#83838a"></polygon><polygon points="-576 518, -640 555, -640 592, -576 629, -512 592, -512 555" fill="none" stroke="#000000" stroke-width="2"></polygon></g></g></g><g opacity="1"><g id="c543d458-18ab-4a81-ac8e-965b18954a34" transform="translate(0 0)"><g><polygon points="-256 703, -192 740, -256 777, -320 740" fill="#ececed"></polygon><polygon points="-320 777, -256 814, -256 777, -320 740" fill="#d2d2d4" stroke="#83838a"></polygon><polygon points="-256 814, -192 777, -192 740, -256 777" fill="#b8b8bb" stroke="#83838a"></polygon><polygon points="-256 703, -320 740, -320 777, -256 814, -192 777, -192 740" fill="none" stroke="#000000" stroke-width="2"></polygon></g></g></g></g><g pointer-events="auto"></g><g pointer-events="auto"><g opacity="1"><g id="599570f3-69c1-4f64-a718-d73c4380fff2" transform="translate(0 0)"><svg x="-384" y="444" overflow="visible"><g transform="scale(1.3975424859373686) matrix(0.707 0.409 -0.707 0.409 0 0)"><svg width="100" height="100" x="-50" y="-50" style="fill:#ffffff"><svg data-name="Layer 1" xmlns="http://www.w3.org/2000/svg" width="100" height="100" viewBox="0 0 100 100"><g><path fill="#9d5025" d="M23.5 37.61h53v27.25h-53z"/><path fill="#f58536" d="M23.5 35.13h53v27.25h-53z"/><path fill="#fbbf93" d="M34.95 36.76h2.5v24h-2.5zM25.75 36.76h2.5v24h-2.5zM30.35 36.76h2.5v24h-2.5zM62.55 36.76h2.5v24h-2.5zM67.15 36.76h2.5v24h-2.5zM71.75 36.76h2.5v24h-2.5z"/><path fill="#fff" d="M26.4 37.41h1.85v23.35H26.4zM31 37.41h1.85v23.35H31zM35.6 37.41h1.85v23.35H35.6zM63.2 37.41h1.85v23.35H63.2zM67.8 37.41h1.85v23.35H67.8zM72.4 37.41h1.85v23.35H72.4z"/><g><rect x="43.87" y="42.63" width="12.27" height="12.27" rx="2.5" ry="2.5" fill="#d16929"/><path d="M53.63 55.65h-7.26a3.25 3.25 0 0 1-3.25-3.25v-7.27a3.25 3.25 0 0 1 3.25-3.25h7.27a3.25 3.25 0 0 1 3.25 3.25v7.27a3.25 3.25 0 0 1-3.26 3.25zm-7.26-12.27a1.75 1.75 0 0 0-1.75 1.75v7.27a1.75 1.75 0 0 0 1.75 1.75h7.27a1.75 1.75 0 0 0 1.75-1.75v-7.27a1.75 1.75 0 0 0-1.75-1.75z" fill="#fff"/></g><path d="M46.13 43.38a.75.75 0 0 1-.75-.75v-2.75a.75.75 0 1 1 1.5 0v2.75a.75.75 0 0 1-.75.75zM48.69 43.38a.75.75 0 0 1-.75-.75v-2.75a.75.75 0 0 1 1.5 0v2.75a.75.75 0 0 1-.75.75zM51.24 43.38a.75.75 0 0 1-.75-.75v-2.75a.75.75 0 0 1 1.5 0v2.75a.75.75 0 0 1-.75.75zM53.8 43.38a.75.75 0 0 1-.75-.75v-2.75a.75.75 0 0 1 1.5 0v2.75a.75.75 0 0 1-.75.75zM46.13 58.4a.75.75 0 0 1-.75-.75V54.9a.75.75 0 1 1 1.5 0v2.75a.75.75 0 0 1-.75.75zM48.69 58.4a.75.75 0 0 1-.75-.75V54.9a.75.75 0 0 1 1.5 0v2.75a.75.75 0 0 1-.75.75zM51.24 58.4a.75.75 0 0 1-.75-.75V54.9a.75.75 0 0 1 1.5 0v2.75a.75.75 0 0 1-.75.75zM53.8 58.4a.75.75 0 0 1-.75-.75V54.9a.75.75 0 0 1 1.5 0v2.75a.75.75 0 0 1-.75.75zM58.89 45.68h-2.76a.75.75 0 0 1 0-1.5h2.75a.75.75 0 0 1 0 1.5zM58.89 48.23h-2.76a.75.75 0 0 1 0-1.5h2.75a.75.75 0 0 1 0 1.5zM58.89 50.79h-2.76a.75.75 0 0 1 0-1.5h2.75a.75.75 0 0 1 0 1.5zM58.89 53.34h-2.76a.75.75 0 0 1 0-1.5h2.75a.75.75 0 0 1 0 1.5zM43.83 45.68h-2.75a.75.75 0 0 1 0-1.5h2.75a.75.75 0 0 1 0 1.5zM43.83 48.23h-2.75a.75.75 0 0 1 0-1.5h2.75a.75.75 0 0 1 0 1.5zM43.83 50.79h-2.75a.75.75 0 0 1 0-1.5h2.75a.75.75 0 0 1 0 1.5zM43.83 53.34h-2.75a.75.75 0 0 1 0-1.5h2.75a.75.75 0 0 1 0 1.5z" fill="#fff"/><g><path fill="#fbbf93" d="M47.52 46.28h4.96v4.96h-4.96z"/><path d="M52.48 51.74h-5a.5.5 0 0 1-.5-.5v-5a.5.5 0 0 1 .5-.5h5a.5.5 0 0 1 .5.5v5a.5.5 0 0 1-.5.5zm-4.46-1h4v-4H48z" fill="#fff"/></g></g></svg></svg></g></svg></g></g><g opacity="1"><g id="afcd8b06-805c-4291-854a-b32d51877e41" transform="translate(0 0)"><svg x="-480" y="500" overflow="visible"><g transform="scale(1.3975424859373686) matrix(0.707 0.409 -0.707 0.409 0 0)"><svg width="100" height="100" x="-50" y="-50" style="fill:#ffffff"><svg data-name="Layer 1" xmlns="http://www.w3.org/2000/svg" width="100" height="100" viewBox="0 0 100 100"><g><path fill="#9d5025" d="M23.5 37.61h53v27.25h-53z"/><path fill="#f58536" d="M23.5 35.13h53v27.25h-53z"/><path fill="#fbbf93" d="M34.95 36.76h2.5v24h-2.5zM25.75 36.76h2.5v24h-2.5zM30.35 36.76h2.5v24h-2.5zM62.55 36.76h2.5v24h-2.5zM67.15 36.76h2.5v24h-2.5zM71.75 36.76h2.5v24h-2.5z"/><path fill="#fff" d="M26.4 37.41h1.85v23.35H26.4zM31 37.41h1.85v23.35H31zM35.6 37.41h1.85v23.35H35.6zM63.2 37.41h1.85v23.35H63.2zM67.8 37.41h1.85v23.35H67.8zM72.4 37.41h1.85v23.35H72.4z"/><g><rect x="43.87" y="42.63" width="12.27" height="12.27" rx="2.5" ry="2.5" fill="#d16929"/><path d="M53.63 55.65h-7.26a3.25 3.25 0 0 1-3.25-3.25v-7.27a3.25 3.25 0 0 1 3.25-3.25h7.27a3.25 3.25 0 0 1 3.25 3.25v7.27a3.25 3.25 0 0 1-3.26 3.25zm-7.26-12.27a1.75 1.75 0 0 0-1.75 1.75v7.27a1.75 1.75 0 0 0 1.75 1.75h7.27a1.75 1.75 0 0 0 1.75-1.75v-7.27a1.75 1.75 0 0 0-1.75-1.75z" fill="#fff"/></g><path d="M46.13 43.38a.75.75 0 0 1-.75-.75v-2.75a.75.75 0 1 1 1.5 0v2.75a.75.75 0 0 1-.75.75zM48.69 43.38a.75.75 0 0 1-.75-.75v-2.75a.75.75 0 0 1 1.5 0v2.75a.75.75 0 0 1-.75.75zM51.24 43.38a.75.75 0 0 1-.75-.75v-2.75a.75.75 0 0 1 1.5 0v2.75a.75.75 0 0 1-.75.75zM53.8 43.38a.75.75 0 0 1-.75-.75v-2.75a.75.75 0 0 1 1.5 0v2.75a.75.75 0 0 1-.75.75zM46.13 58.4a.75.75 0 0 1-.75-.75V54.9a.75.75 0 1 1 1.5 0v2.75a.75.75 0 0 1-.75.75zM48.69 58.4a.75.75 0 0 1-.75-.75V54.9a.75.75 0 0 1 1.5 0v2.75a.75.75 0 0 1-.75.75zM51.24 58.4a.75.75 0 0 1-.75-.75V54.9a.75.75 0 0 1 1.5 0v2.75a.75.75 0 0 1-.75.75zM53.8 58.4a.75.75 0 0 1-.75-.75V54.9a.75.75 0 0 1 1.5 0v2.75a.75.75 0 0 1-.75.75zM58.89 45.68h-2.76a.75.75 0 0 1 0-1.5h2.75a.75.75 0 0 1 0 1.5zM58.89 48.23h-2.76a.75.75 0 0 1 0-1.5h2.75a.75.75 0 0 1 0 1.5zM58.89 50.79h-2.76a.75.75 0 0 1 0-1.5h2.75a.75.75 0 0 1 0 1.5zM58.89 53.34h-2.76a.75.75 0 0 1 0-1.5h2.75a.75.75 0 0 1 0 1.5zM43.83 45.68h-2.75a.75.75 0 0 1 0-1.5h2.75a.75.75 0 0 1 0 1.5zM43.83 48.23h-2.75a.75.75 0 0 1 0-1.5h2.75a.75.75 0 0 1 0 1.5zM43.83 50.79h-2.75a.75.75 0 0 1 0-1.5h2.75a.75.75 0 0 1 0 1.5zM43.83 53.34h-2.75a.75.75 0 0 1 0-1.5h2.75a.75.75 0 0 1 0 1.5z" fill="#fff"/><g><path fill="#fbbf93" d="M47.52 46.28h4.96v4.96h-4.96z"/><path d="M52.48 51.74h-5a.5.5 0 0 1-.5-.5v-5a.5.5 0 0 1 .5-.5h5a.5.5 0 0 1 .5.5v5a.5.5 0 0 1-.5.5zm-4.46-1h4v-4H48z" fill="#fff"/></g></g></svg></svg></g></svg></g></g><g opacity="1"><g id="630923ae-5069-4081-8e32-76a39621dafd" transform="translate(0 0)"><svg x="-576" y="555" overflow="visible"><g transform="scale(1.3975424859373686) matrix(0.707 0.409 -0.707 0.409 0 0)"><svg width="100" height="100" x="-50" y="-50" style="fill:#ffffff"><svg data-name="Layer 1" xmlns="http://www.w3.org/2000/svg" width="100" height="100" viewBox="0 0 100 100"><g><path fill="#9d5025" d="M23.5 37.61h53v27.25h-53z"/><path fill="#f58536" d="M23.5 35.13h53v27.25h-53z"/><path fill="#fbbf93" d="M34.95 36.76h2.5v24h-2.5zM25.75 36.76h2.5v24h-2.5zM30.35 36.76h2.5v24h-2.5zM62.55 36.76h2.5v24h-2.5zM67.15 36.76h2.5v24h-2.5zM71.75 36.76h2.5v24h-2.5z"/><path fill="#fff" d="M26.4 37.41h1.85v23.35H26.4zM31 37.41h1.85v23.35H31zM35.6 37.41h1.85v23.35H35.6zM63.2 37.41h1.85v23.35H63.2zM67.8 37.41h1.85v23.35H67.8zM72.4 37.41h1.85v23.35H72.4z"/><g><rect x="43.87" y="42.63" width="12.27" height="12.27" rx="2.5" ry="2.5" fill="#d16929"/><path d="M53.63 55.65h-7.26a3.25 3.25 0 0 1-3.25-3.25v-7.27a3.25 3.25 0 0 1 3.25-3.25h7.27a3.25 3.25 0 0 1 3.25 3.25v7.27a3.25 3.25 0 0 1-3.26 3.25zm-7.26-12.27a1.75 1.75 0 0 0-1.75 1.75v7.27a1.75 1.75 0 0 0 1.75 1.75h7.27a1.75 1.75 0 0 0 1.75-1.75v-7.27a1.75 1.75 0 0 0-1.75-1.75z" fill="#fff"/></g><path d="M46.13 43.38a.75.75 0 0 1-.75-.75v-2.75a.75.75 0 1 1 1.5 0v2.75a.75.75 0 0 1-.75.75zM48.69 43.38a.75.75 0 0 1-.75-.75v-2.75a.75.75 0 0 1 1.5 0v2.75a.75.75 0 0 1-.75.75zM51.24 43.38a.75.75 0 0 1-.75-.75v-2.75a.75.75 0 0 1 1.5 0v2.75a.75.75 0 0 1-.75.75zM53.8 43.38a.75.75 0 0 1-.75-.75v-2.75a.75.75 0 0 1 1.5 0v2.75a.75.75 0 0 1-.75.75zM46.13 58.4a.75.75 0 0 1-.75-.75V54.9a.75.75 0 1 1 1.5 0v2.75a.75.75 0 0 1-.75.75zM48.69 58.4a.75.75 0 0 1-.75-.75V54.9a.75.75 0 0 1 1.5 0v2.75a.75.75 0 0 1-.75.75zM51.24 58.4a.75.75 0 0 1-.75-.75V54.9a.75.75 0 0 1 1.5 0v2.75a.75.75 0 0 1-.75.75zM53.8 58.4a.75.75 0 0 1-.75-.75V54.9a.75.75 0 0 1 1.5 0v2.75a.75.75 0 0 1-.75.75zM58.89 45.68h-2.76a.75.75 0 0 1 0-1.5h2.75a.75.75 0 0 1 0 1.5zM58.89 48.23h-2.76a.75.75 0 0 1 0-1.5h2.75a.75.75 0 0 1 0 1.5zM58.89 50.79h-2.76a.75.75 0 0 1 0-1.5h2.75a.75.75 0 0 1 0 1.5zM58.89 53.34h-2.76a.75.75 0 0 1 0-1.5h2.75a.75.75 0 0 1 0 1.5zM43.83 45.68h-2.75a.75.75 0 0 1 0-1.5h2.75a.75.75 0 0 1 0 1.5zM43.83 48.23h-2.75a.75.75 0 0 1 0-1.5h2.75a.75.75 0 0 1 0 1.5zM43.83 50.79h-2.75a.75.75 0 0 1 0-1.5h2.75a.75.75 0 0 1 0 1.5zM43.83 53.34h-2.75a.75.75 0 0 1 0-1.5h2.75a.75.75 0 0 1 0 1.5z" fill="#fff"/><g><path fill="#fbbf93" d="M47.52 46.28h4.96v4.96h-4.96z"/><path d="M52.48 51.74h-5a.5.5 0 0 1-.5-.5v-5a.5.5 0 0 1 .5-.5h5a.5.5 0 0 1 .5.5v5a.5.5 0 0 1-.5.5zm-4.46-1h4v-4H48z" fill="#fff"/></g></g></svg></svg></g></svg></g></g><g opacity="1"><g id="49e95dd7-73a4-4f57-a914-6c7252a4b614" transform="translate(0 0)"><svg x="-160" y="685" overflow="visible"><g transform="scale(1.3975424859373686) matrix(0.707 0.409 -0.707 0.409 0 0)"><svg width="100" height="100" x="-50" y="-50" style="fill:#ffffff"><svg data-name="Layer 1" xmlns="http://www.w3.org/2000/svg" width="100" height="100" viewBox="0 0 100 100"><g><path fill="#9d5025" d="M23.5 37.61h53v27.25h-53z"/><path fill="#f58536" d="M23.5 35.13h53v27.25h-53z"/><path fill="#fbbf93" d="M34.95 36.76h2.5v24h-2.5zM25.75 36.76h2.5v24h-2.5zM30.35 36.76h2.5v24h-2.5zM62.55 36.76h2.5v24h-2.5zM67.15 36.76h2.5v24h-2.5zM71.75 36.76h2.5v24h-2.5z"/><path fill="#fff" d="M26.4 37.41h1.85v23.35H26.4zM31 37.41h1.85v23.35H31zM35.6 37.41h1.85v23.35H35.6zM63.2 37.41h1.85v23.35H63.2zM67.8 37.41h1.85v23.35H67.8zM72.4 37.41h1.85v23.35H72.4z"/><g><rect x="43.87" y="42.63" width="12.27" height="12.27" rx="2.5" ry="2.5" fill="#d16929"/><path d="M53.63 55.65h-7.26a3.25 3.25 0 0 1-3.25-3.25v-7.27a3.25 3.25 0 0 1 3.25-3.25h7.27a3.25 3.25 0 0 1 3.25 3.25v7.27a3.25 3.25 0 0 1-3.26 3.25zm-7.26-12.27a1.75 1.75 0 0 0-1.75 1.75v7.27a1.75 1.75 0 0 0 1.75 1.75h7.27a1.75 1.75 0 0 0 1.75-1.75v-7.27a1.75 1.75 0 0 0-1.75-1.75z" fill="#fff"/></g><path d="M46.13 43.38a.75.75 0 0 1-.75-.75v-2.75a.75.75 0 1 1 1.5 0v2.75a.75.75 0 0 1-.75.75zM48.69 43.38a.75.75 0 0 1-.75-.75v-2.75a.75.75 0 0 1 1.5 0v2.75a.75.75 0 0 1-.75.75zM51.24 43.38a.75.75 0 0 1-.75-.75v-2.75a.75.75 0 0 1 1.5 0v2.75a.75.75 0 0 1-.75.75zM53.8 43.38a.75.75 0 0 1-.75-.75v-2.75a.75.75 0 0 1 1.5 0v2.75a.75.75 0 0 1-.75.75zM46.13 58.4a.75.75 0 0 1-.75-.75V54.9a.75.75 0 1 1 1.5 0v2.75a.75.75 0 0 1-.75.75zM48.69 58.4a.75.75 0 0 1-.75-.75V54.9a.75.75 0 0 1 1.5 0v2.75a.75.75 0 0 1-.75.75zM51.24 58.4a.75.75 0 0 1-.75-.75V54.9a.75.75 0 0 1 1.5 0v2.75a.75.75 0 0 1-.75.75zM53.8 58.4a.75.75 0 0 1-.75-.75V54.9a.75.75 0 0 1 1.5 0v2.75a.75.75 0 0 1-.75.75zM58.89 45.68h-2.76a.75.75 0 0 1 0-1.5h2.75a.75.75 0 0 1 0 1.5zM58.89 48.23h-2.76a.75.75 0 0 1 0-1.5h2.75a.75.75 0 0 1 0 1.5zM58.89 50.79h-2.76a.75.75 0 0 1 0-1.5h2.75a.75.75 0 0 1 0 1.5zM58.89 53.34h-2.76a.75.75 0 0 1 0-1.5h2.75a.75.75 0 0 1 0 1.5zM43.83 45.68h-2.75a.75.75 0 0 1 0-1.5h2.75a.75.75 0 0 1 0 1.5zM43.83 48.23h-2.75a.75.75 0 0 1 0-1.5h2.75a.75.75 0 0 1 0 1.5zM43.83 50.79h-2.75a.75.75 0 0 1 0-1.5h2.75a.75.75 0 0 1 0 1.5zM43.83 53.34h-2.75a.75.75 0 0 1 0-1.5h2.75a.75.75 0 0 1 0 1.5z" fill="#fff"/><g><path fill="#fbbf93" d="M47.52 46.28h4.96v4.96h-4.96z"/><path d="M52.48 51.74h-5a.5.5 0 0 1-.5-.5v-5a.5.5 0 0 1 .5-.5h5a.5.5 0 0 1 .5.5v5a.5.5 0 0 1-.5.5zm-4.46-1h4v-4H48z" fill="#fff"/></g></g></svg></svg></g></svg></g></g><g opacity="1"><g id="b995aee4-ee0c-4c6c-8150-86cc891d5238" transform="translate(0 0)"><svg x="-64" y="629" overflow="visible"><g transform="scale(1.3975424859373686) matrix(0.707 0.409 -0.707 0.409 0 0)"><svg width="100" height="100" x="-50" y="-50" style="fill:#ffffff"><svg data-name="Layer 1" xmlns="http://www.w3.org/2000/svg" width="100" height="100" viewBox="0 0 100 100"><g><path fill="#9d5025" d="M23.5 37.61h53v27.25h-53z"/><path fill="#f58536" d="M23.5 35.13h53v27.25h-53z"/><path fill="#fbbf93" d="M34.95 36.76h2.5v24h-2.5zM25.75 36.76h2.5v24h-2.5zM30.35 36.76h2.5v24h-2.5zM62.55 36.76h2.5v24h-2.5zM67.15 36.76h2.5v24h-2.5zM71.75 36.76h2.5v24h-2.5z"/><path fill="#fff" d="M26.4 37.41h1.85v23.35H26.4zM31 37.41h1.85v23.35H31zM35.6 37.41h1.85v23.35H35.6zM63.2 37.41h1.85v23.35H63.2zM67.8 37.41h1.85v23.35H67.8zM72.4 37.41h1.85v23.35H72.4z"/><g><rect x="43.87" y="42.63" width="12.27" height="12.27" rx="2.5" ry="2.5" fill="#d16929"/><path d="M53.63 55.65h-7.26a3.25 3.25 0 0 1-3.25-3.25v-7.27a3.25 3.25 0 0 1 3.25-3.25h7.27a3.25 3.25 0 0 1 3.25 3.25v7.27a3.25 3.25 0 0 1-3.26 3.25zm-7.26-12.27a1.75 1.75 0 0 0-1.75 1.75v7.27a1.75 1.75 0 0 0 1.75 1.75h7.27a1.75 1.75 0 0 0 1.75-1.75v-7.27a1.75 1.75 0 0 0-1.75-1.75z" fill="#fff"/></g><path d="M46.13 43.38a.75.75 0 0 1-.75-.75v-2.75a.75.75 0 1 1 1.5 0v2.75a.75.75 0 0 1-.75.75zM48.69 43.38a.75.75 0 0 1-.75-.75v-2.75a.75.75 0 0 1 1.5 0v2.75a.75.75 0 0 1-.75.75zM51.24 43.38a.75.75 0 0 1-.75-.75v-2.75a.75.75 0 0 1 1.5 0v2.75a.75.75 0 0 1-.75.75zM53.8 43.38a.75.75 0 0 1-.75-.75v-2.75a.75.75 0 0 1 1.5 0v2.75a.75.75 0 0 1-.75.75zM46.13 58.4a.75.75 0 0 1-.75-.75V54.9a.75.75 0 1 1 1.5 0v2.75a.75.75 0 0 1-.75.75zM48.69 58.4a.75.75 0 0 1-.75-.75V54.9a.75.75 0 0 1 1.5 0v2.75a.75.75 0 0 1-.75.75zM51.24 58.4a.75.75 0 0 1-.75-.75V54.9a.75.75 0 0 1 1.5 0v2.75a.75.75 0 0 1-.75.75zM53.8 58.4a.75.75 0 0 1-.75-.75V54.9a.75.75 0 0 1 1.5 0v2.75a.75.75 0 0 1-.75.75zM58.89 45.68h-2.76a.75.75 0 0 1 0-1.5h2.75a.75.75 0 0 1 0 1.5zM58.89 48.23h-2.76a.75.75 0 0 1 0-1.5h2.75a.75.75 0 0 1 0 1.5zM58.89 50.79h-2.76a.75.75 0 0 1 0-1.5h2.75a.75.75 0 0 1 0 1.5zM58.89 53.34h-2.76a.75.75 0 0 1 0-1.5h2.75a.75.75 0 0 1 0 1.5zM43.83 45.68h-2.75a.75.75 0 0 1 0-1.5h2.75a.75.75 0 0 1 0 1.5zM43.83 48.23h-2.75a.75.75 0 0 1 0-1.5h2.75a.75.75 0 0 1 0 1.5zM43.83 50.79h-2.75a.75.75 0 0 1 0-1.5h2.75a.75.75 0 0 1 0 1.5zM43.83 53.34h-2.75a.75.75 0 0 1 0-1.5h2.75a.75.75 0 0 1 0 1.5z" fill="#fff"/><g><path fill="#fbbf93" d="M47.52 46.28h4.96v4.96h-4.96z"/><path d="M52.48 51.74h-5a.5.5 0 0 1-.5-.5v-5a.5.5 0 0 1 .5-.5h5a.5.5 0 0 1 .5.5v5a.5.5 0 0 1-.5.5zm-4.46-1h4v-4H48z" fill="#fff"/></g></g></svg></svg></g></svg></g></g><g opacity="1"><g id="f065c1e2-84aa-4499-9249-442f6b98d1d4" transform="translate(0 0)"><svg x="-256" y="740" overflow="visible"><g transform="scale(1.3975424859373686) matrix(0.707 0.409 -0.707 0.409 0 0)"><svg width="100" height="100" x="-50" y="-50" style="fill:#ffffff"><svg data-name="Layer 1" xmlns="http://www.w3.org/2000/svg" width="100" height="100" viewBox="0 0 100 100"><g><path fill="#9d5025" d="M23.5 37.61h53v27.25h-53z"/><path fill="#f58536" d="M23.5 35.13h53v27.25h-53z"/><path fill="#fbbf93" d="M34.95 36.76h2.5v24h-2.5zM25.75 36.76h2.5v24h-2.5zM30.35 36.76h2.5v24h-2.5zM62.55 36.76h2.5v24h-2.5zM67.15 36.76h2.5v24h-2.5zM71.75 36.76h2.5v24h-2.5z"/><path fill="#fff" d="M26.4 37.41h1.85v23.35H26.4zM31 37.41h1.85v23.35H31zM35.6 37.41h1.85v23.35H35.6zM63.2 37.41h1.85v23.35H63.2zM67.8 37.41h1.85v23.35H67.8zM72.4 37.41h1.85v23.35H72.4z"/><g><rect x="43.87" y="42.63" width="12.27" height="12.27" rx="2.5" ry="2.5" fill="#d16929"/><path d="M53.63 55.65h-7.26a3.25 3.25 0 0 1-3.25-3.25v-7.27a3.25 3.25 0 0 1 3.25-3.25h7.27a3.25 3.25 0 0 1 3.25 3.25v7.27a3.25 3.25 0 0 1-3.26 3.25zm-7.26-12.27a1.75 1.75 0 0 0-1.75 1.75v7.27a1.75 1.75 0 0 0 1.75 1.75h7.27a1.75 1.75 0 0 0 1.75-1.75v-7.27a1.75 1.75 0 0 0-1.75-1.75z" fill="#fff"/></g><path d="M46.13 43.38a.75.75 0 0 1-.75-.75v-2.75a.75.75 0 1 1 1.5 0v2.75a.75.75 0 0 1-.75.75zM48.69 43.38a.75.75 0 0 1-.75-.75v-2.75a.75.75 0 0 1 1.5 0v2.75a.75.75 0 0 1-.75.75zM51.24 43.38a.75.75 0 0 1-.75-.75v-2.75a.75.75 0 0 1 1.5 0v2.75a.75.75 0 0 1-.75.75zM53.8 43.38a.75.75 0 0 1-.75-.75v-2.75a.75.75 0 0 1 1.5 0v2.75a.75.75 0 0 1-.75.75zM46.13 58.4a.75.75 0 0 1-.75-.75V54.9a.75.75 0 1 1 1.5 0v2.75a.75.75 0 0 1-.75.75zM48.69 58.4a.75.75 0 0 1-.75-.75V54.9a.75.75 0 0 1 1.5 0v2.75a.75.75 0 0 1-.75.75zM51.24 58.4a.75.75 0 0 1-.75-.75V54.9a.75.75 0 0 1 1.5 0v2.75a.75.75 0 0 1-.75.75zM53.8 58.4a.75.75 0 0 1-.75-.75V54.9a.75.75 0 0 1 1.5 0v2.75a.75.75 0 0 1-.75.75zM58.89 45.68h-2.76a.75.75 0 0 1 0-1.5h2.75a.75.75 0 0 1 0 1.5zM58.89 48.23h-2.76a.75.75 0 0 1 0-1.5h2.75a.75.75 0 0 1 0 1.5zM58.89 50.79h-2.76a.75.75 0 0 1 0-1.5h2.75a.75.75 0 0 1 0 1.5zM58.89 53.34h-2.76a.75.75 0 0 1 0-1.5h2.75a.75.75 0 0 1 0 1.5zM43.83 45.68h-2.75a.75.75 0 0 1 0-1.5h2.75a.75.75 0 0 1 0 1.5zM43.83 48.23h-2.75a.75.75 0 0 1 0-1.5h2.75a.75.75 0 0 1 0 1.5zM43.83 50.79h-2.75a.75.75 0 0 1 0-1.5h2.75a.75.75 0 0 1 0 1.5zM43.83 53.34h-2.75a.75.75 0 0 1 0-1.5h2.75a.75.75 0 0 1 0 1.5z" fill="#fff"/><g><path fill="#fbbf93" d="M47.52 46.28h4.96v4.96h-4.96z"/><path d="M52.48 51.74h-5a.5.5 0 0 1-.5-.5v-5a.5.5 0 0 1 .5-.5h5a.5.5 0 0 1 .5.5v5a.5.5 0 0 1-.5.5zm-4.46-1h4v-4H48z" fill="#fff"/></g></g></svg></svg></g></svg></g></g></g><g pointer-events="auto"><g opacity="1"><g id="edfbfd4e-0e24-4944-8482-ce09ec761c4c" transform="translate(0 0)"><svg x="-656" y="657" overflow="visible"><text stroke="#000000" stroke-width="2" font-family="Open Sans" y="36.5" font-size="25pt" fill="#ffffff" font-weight="bold" transform="matrix(0.707 0.409 -0.707 0.409 0 0)" xml:space="preserve"><tspan x="8" dy="0">ECS Cluster - Production</tspan></text><text font-family="Open Sans" y="36.5" font-size="25pt" fill="#ffffff" font-weight="bold" transform="matrix(0.707 0.409 -0.707 0.409 0 0)" xml:space="preserve"><tspan x="8" dy="0">ECS Cluster - Production</tspan></text></svg></g></g><g opacity="1"><g id="e972bf37-3a04-400a-afa4-91a1eba3d73c"><svg x="16" y="102" overflow="visible"><text stroke="#000000" stroke-width="2" font-family="Open Sans" y="36.5" font-size="25pt" fill="#ffffff" font-weight="bold" transform="matrix(0.707 0.409 -0.707 0.409 0 0)" xml:space="preserve"><tspan x="8" dy="0">CloudFront - api.amaysim.com.au/example</tspan></text><text font-family="Open Sans" y="36.5" font-size="25pt" fill="#ffffff" font-weight="bold" transform="matrix(0.707 0.409 -0.707 0.409 0 0)" xml:space="preserve"><tspan x="8" dy="0">CloudFront - api.amaysim.com.au/example</tspan></text></svg></g></g><g opacity="1"><g id="e4dd0236-0804-4484-b0a8-1c95a9b743c3"><svg x="-160" y="185" overflow="visible"><text stroke="#000000" stroke-width="2" font-family="Open Sans" y="36.5" font-size="25pt" fill="#ffffff" font-weight="bold" transform="matrix(0.707 0.409 -0.707 0.409 0 0)" xml:space="preserve"><tspan x="8" dy="0">ALB - example.production-apps.amaysim.net</tspan></text><text font-family="Open Sans" y="36.5" font-size="25pt" fill="#ffffff" font-weight="bold" transform="matrix(0.707 0.409 -0.707 0.409 0 0)" xml:space="preserve"><tspan x="8" dy="0">ALB - example.production-apps.amaysim.net</tspan></text></svg></g></g><g opacity="1"><g id="37663794-cace-49fd-a3b9-7d76b615927e"><svg x="-144" y="435" overflow="visible"><text stroke="#000000" stroke-width="2" font-family="Open Sans" y="36.5" font-size="25pt" fill="#ffffff" font-weight="bold" transform="matrix(0.707 0.409 -0.707 0.409 0 0)" xml:space="preserve"><tspan x="8" dy="0">Spot Fleet</tspan></text><text font-family="Open Sans" y="36.5" font-size="25pt" fill="#ffffff" font-weight="bold" transform="matrix(0.707 0.409 -0.707 0.409 0 0)" xml:space="preserve"><tspan x="8" dy="0">Spot Fleet</tspan></text></svg></g></g><g opacity="1"><g id="4a2c9296-0f01-4dfb-a4a6-d3acb3c13b4d"><svg x="-367" y="454" overflow="visible"><text stroke="#ffffff" stroke-width="4" font-family="Open Sans" y="36.5" font-size="25pt" fill="#4286c5" font-weight="bold" transform="matrix(0.707 0.409 -0.707 0.409 0 0)" xml:space="preserve"><tspan x="8" dy="0">Task #1</tspan></text><text font-family="Open Sans" y="36.5" font-size="25pt" fill="#4286c5" font-weight="bold" transform="matrix(0.707 0.409 -0.707 0.409 0 0)" xml:space="preserve"><tspan x="8" dy="0">Task #1</tspan></text></svg></g></g><g opacity="1"><g id="ddf5c0ee-4918-47d2-94bb-57096e3a928e"><svg x="-463" y="509" overflow="visible"><text stroke="#ffffff" stroke-width="4" font-family="Open Sans" y="36.5" font-size="25pt" fill="#4286c5" font-weight="bold" transform="matrix(0.707 0.409 -0.707 0.409 0 0)" xml:space="preserve"><tspan x="8" dy="0">Task #2</tspan></text><text font-family="Open Sans" y="36.5" font-size="25pt" fill="#4286c5" font-weight="bold" transform="matrix(0.707 0.409 -0.707 0.409 0 0)" xml:space="preserve"><tspan x="8" dy="0">Task #2</tspan></text></svg></g></g><g opacity="1"><g id="3b942426-cd3d-4918-9b61-4212e5547666"><svg x="-559" y="565" overflow="visible"><text stroke="#ffffff" stroke-width="4" font-family="Open Sans" y="36.5" font-size="25pt" fill="#4286c5" font-weight="bold" transform="matrix(0.707 0.409 -0.707 0.409 0 0)" xml:space="preserve"><tspan x="8" dy="0">Task #n</tspan></text><text font-family="Open Sans" y="36.5" font-size="25pt" fill="#4286c5" font-weight="bold" transform="matrix(0.707 0.409 -0.707 0.409 0 0)" xml:space="preserve"><tspan x="8" dy="0">Task #n</tspan></text></svg></g></g><g opacity="1"><g id="89e94e70-f09d-421e-bc0b-e3a069828e97" transform="translate(0 0)"><svg x="-672" y="574" overflow="visible"><text stroke="#ffffff" stroke-width="4" font-family="Open Sans" y="36.5" font-size="25pt" fill="#4286c5" font-weight="bold" transform="matrix(0.707 0.409 -0.707 0.409 0 0)" xml:space="preserve"><tspan x="8" dy="0">Service v1</tspan></text><text font-family="Open Sans" y="36.5" font-size="25pt" fill="#4286c5" font-weight="bold" transform="matrix(0.707 0.409 -0.707 0.409 0 0)" xml:space="preserve"><tspan x="8" dy="0">Service v1</tspan></text></svg></g></g><g opacity="1"><g id="65cb9284-cdfe-4e04-b5d3-5a63a5bee911"><svg x="-47" y="639" overflow="visible"><text stroke="#ffffff" stroke-width="4" font-family="Open Sans" y="36.5" font-size="25pt" fill="#4286c5" font-weight="bold" transform="matrix(0.707 0.409 -0.707 0.409 0 0)" xml:space="preserve"><tspan x="8" dy="0">Task #1</tspan></text><text font-family="Open Sans" y="36.5" font-size="25pt" fill="#4286c5" font-weight="bold" transform="matrix(0.707 0.409 -0.707 0.409 0 0)" xml:space="preserve"><tspan x="8" dy="0">Task #1</tspan></text></svg></g></g><g opacity="1"><g id="0042f827-4dcc-412d-b87d-945f6c3d0bb2"><svg x="-239" y="750" overflow="visible"><text stroke="#ffffff" stroke-width="4" font-family="Open Sans" y="36.5" font-size="25pt" fill="#4286c5" font-weight="bold" transform="matrix(0.707 0.409 -0.707 0.409 0 0)" xml:space="preserve"><tspan x="8" dy="0">Task #n</tspan></text><text font-family="Open Sans" y="36.5" font-size="25pt" fill="#4286c5" font-weight="bold" transform="matrix(0.707 0.409 -0.707 0.409 0 0)" xml:space="preserve"><tspan x="8" dy="0">Task #n</tspan></text></svg></g></g><g opacity="1"><g id="1811386f-b42d-4cfb-95a9-17c9467d82b8" transform="translate(0 0)"><svg x="-352" y="759" overflow="visible"><text stroke="#ffffff" stroke-width="4" font-family="Open Sans" y="36.5" font-size="25pt" fill="#4286c5" font-weight="bold" transform="matrix(0.707 0.409 -0.707 0.409 0 0)" xml:space="preserve"><tspan x="8" dy="0">Service v2</tspan></text><text font-family="Open Sans" y="36.5" font-size="25pt" fill="#4286c5" font-weight="bold" transform="matrix(0.707 0.409 -0.707 0.409 0 0)" xml:space="preserve"><tspan x="8" dy="0">Service v2</tspan></text></svg></g></g><g opacity="1"><g id="d862d279-70de-471c-a8c6-ac2ddfe9ca12"><svg x="-143" y="694" overflow="visible"><text stroke="#ffffff" stroke-width="4" font-family="Open Sans" y="36.5" font-size="25pt" fill="#4286c5" font-weight="bold" transform="matrix(0.707 0.409 -0.707 0.409 0 0)" xml:space="preserve"><tspan x="8" dy="0">Task #2</tspan></text><text font-family="Open Sans" y="36.5" font-size="25pt" fill="#4286c5" font-weight="bold" transform="matrix(0.707 0.409 -0.707 0.409 0 0)" xml:space="preserve"><tspan x="8" dy="0">Task #2</tspan></text></svg></g></g></g><g></g></g></svg>