<?xml version="1.0" standalone="no"?>
<!DOCTYPE svg PUBLIC "-//W3C//DTD SVG 1.1//EN"
  "http://www.w3.org/Graphics/SVG/1.1/DTD/svg11.dtd">
<svg version="1.1" xmlns="http://www.w3.org/2000/svg" xmlns:xlink="http://www.w3.org/1999/xlink" width="1920" height="1080" viewBox="-1040.888888888889 -32 1889.7777777777778 1063" id="ccdiagram"><filter id="grayscale"><feColorMatrix type="matrix" values="0.3333 0.3333 0.3333 0 0 0.3333 0.3333 0.3333 0 0 0.3333 0.3333 0.3333 0 0 0 0 0 1 0"></feColorMatrix></filter><defs><style type="text/css">@import url(&#x27;https://fonts.googleapis.com/css?family=Open+Sans:400,700|Inconsolata:400&#x27;);</style></defs><g><g style="pointer-events:none"><g><pattern id="gridPatternMinor" x="0" y="37" width="128" height="74" patternUnits="userSpaceOnUse"><path d="M 0 0 L 128 74" stroke="#eee" stroke-width="1"></path><path d="M 128 0 L 0 74" stroke="#eee" stroke-width="1"></path></pattern><polygon points="0 0, 768 444, -192 999, -960 555" fill="url(#gridPatternMinor)"></polygon></g><polygon points="-960 555, -960 565, -192 1009, -192 999" stroke-linejoin="round" stroke="#54626f" stroke-width="1" fill="#f9f9f9"></polygon><polygon points="-192 1009, 768 454, 768 444, -192 999" stroke-linejoin="round" stroke="#54626f" stroke-width="1" fill="#e2e2e2"></polygon></g><g pointer-events="auto"></g><g style="pointer-events:none"><g><pattern id="gridPatternMajor" x="0" y="37" width="128" height="74" patternUnits="userSpaceOnUse"><path d="M 64 0 L 128 37 64 74 0 37 z" stroke="#54626f" stroke-width="1" fill="none"></path></pattern><polygon points="0 0, 768 444, -192 999, -960 555" fill="url(#gridPatternMajor)"></polygon></g></g><g pointer-events="auto"><g opacity="1"><g id="86ae34c1-0d10-492a-9673-b56672812d54"><g><g><polygon points="-96 759, -32 759, 480 463, 480 426, -64 111, -608 426, -608 463" stroke="#2196F3" stroke-width="8" fill="none"></polygon></g><g><polygon points="-64 111, -96 93, -320 222, -320 259" stroke="#2196F3" stroke-width="8" fill="#2196F3"></polygon><text font-family="Inconsolata" font-size="20pt" font-weight="bold" fill="#ffffff" transform="translate(-111 128) matrix(0.707 -0.409 0.707 0.409 0 0)" text-anchor="end">Security Group</text><g transform="translate(-96 102) matrix(0.707 0.409 -0.707 0.409 0 0)"><svg width="23" height="32" style="fill:#ffffff"><svg xmlns="http://www.w3.org/2000/svg" width="23" height="32" viewBox="0 0 23 32"><path d="M19.429 17.143V5.714h-8v20.304c.911-.482 2.375-1.321 3.804-2.446 1.911-1.5 4.196-3.839 4.196-6.429zm3.428-13.714v13.714c0 7.518-10.518 12.268-10.964 12.464a1.049 1.049 0 0 1-.928 0C10.519 29.411.001 24.661.001 17.143V3.429c0-.625.518-1.143 1.143-1.143h20.571c.625 0 1.143.518 1.143 1.143z"/></svg></svg></g></g></g></g></g></g><g></g><g pointer-events="auto"></g><g></g><g pointer-events="auto"><g opacity="1"></g><g opacity="1"></g><g opacity="1"></g></g><g pointer-events="none"></g><g pointer-events="auto"><g><g cursor="cell"><line x1="80" y1="361" x2="-5" y2="410" stroke="red" stroke-width="8" opacity="0"></line><line x1="80" y1="361" x2="-5" y2="410" stroke="#000000" stroke-width="2" stroke-linecap="round"></line><polygon points="-15 416, 11 410, -2 408, -5 401, -15 416" stroke-linejoin="round" fill="#000000" stroke="#000000" stroke-width="1"></polygon></g></g><g><g cursor="cell"><line x1="-96" y1="463" x2="-182" y2="512" stroke="red" stroke-width="8" opacity="0"></line><line x1="-96" y1="463" x2="-182" y2="512" stroke="#000000" stroke-width="2" stroke-linecap="round"></line><polygon points="-192 518, -166 513, -180 511, -183 503, -192 518" stroke-linejoin="round" fill="#000000" stroke="#000000" stroke-width="1"></polygon></g></g><g><g cursor="cell"><line x1="288" y1="241" x2="186" y2="300" stroke="red" stroke-width="8" opacity="0"></line><line x1="288" y1="241" x2="186" y2="300" stroke="#000000" stroke-width="2" stroke-linecap="round"></line><polygon points="176 305, 202 300, 188 298, 185 290, 176 305" stroke-linejoin="round" fill="#000000" stroke="#000000" stroke-width="1"></polygon></g></g></g><g pointer-events="auto"><g opacity="1"><g id="9bb4faf2-aa34-4e47-ae14-76e710ccb7b9" transform="translate(0 0)"><svg x="263" y="160" height="93.28" width="81" viewBox="0 0 21.431 24.68"><path d="M.268 5.102l12.537 7.238 5.224-.603 3.134-9.048L16.984.276 1.313 2.086z" fill="#ececed" fill-rule="evenodd"></path><path d="M.268 5.102v12.064l12.537 7.238V12.34z" fill="#d2d2d4" fill-rule="evenodd"></path><path d="M12.805 12.34l5.224-.603v12.064l-5.224.603z" fill="#d2d2d4" fill-rule="evenodd"></path><path d="M18.029 11.737l3.134-9.048v12.064l-3.134 9.048z" fill="#b8b8bb" fill-rule="evenodd"></path><path d="M.268 5.102l12.537 7.238 5.224-.603 3.134-9.048M18.029 11.737v12.064M12.805 12.34v12.064" fill="none" stroke="#83838a" stroke-width=".265"></path><path d="M.268 17.166l12.537 7.238 5.224-.603 3.134-9.048V2.689L16.984.276 1.313 2.086.268 5.102z" fill="none" stroke="#000000" stroke-width=".529"></path><path d="M16.852 3.319c-.637-.01-1.269-.156-1.755-.437-.486-.28-.738-.645-.756-1.013l-3.498.035c.11.43-.121.884-.694 1.215-.364.21-.812.34-1.282.391-.625.068-1.225.242-1.709.521-1.273.735-1.277 1.926-.013 2.664.733.423 1.145.956 1.247 1.509.957.059 1.88.296 2.613.72 1.279.73 3.34.727 4.614-.008.483-.28.784-.626.902-.987.089-.271.315-.53.678-.74.573-.33 1.36-.464 2.104-.4l.061-2.02c-.637-.01-1.269-.156-1.755-.437-.486-.28-.739-.645-.757-1.013z" fill="none"></path><path d="M17.277 4.302c.467.27 1.056.427 1.664.471l-.05 1.693c-.73-.014-1.466.14-2.023.462-.404.234-.655.522-.754.824-.107.33-.381.647-.823.902-1.16.671-3.041.674-4.207.007-.722-.418-1.619-.665-2.555-.75-.144-.54-.573-1.06-1.296-1.477C6.081 5.759 6.086 4.672 7.247 4c.441-.256.989-.414 1.559-.476.522-.057 1.02-.203 1.424-.436.557-.322.823-.749.8-1.17l2.926-.03c.076.352.348.693.815.963.473.274 1.071.432 1.688.473.072.357.345.703.818.976z" fill="#4286c5" fill-rule="evenodd"></path><g style="line-height:0%" fill="#fff" font-family="Interstate" font-size="5.176" stroke-width=".268"><path style="line-height:1.25;-inkscape-font-specification:Interstate" d="M11.246 3.567l1.863 1.078-.399.231-1.429-.826-.86.497q.139.04.259.09.122.049.225.108.588.34.609.725.021.385-.529.703-.566.327-1.233.305-.665-.023-1.307-.394-.22-.127-.414-.282-.19-.154-.36-.339l.478-.276q.096.19.265.352.17.163.421.309.407.235.858.249.45.013.818-.199.366-.212.343-.473-.024-.26-.43-.496-.19-.11-.423-.196-.23-.084-.517-.147zM14.127 7.104q.268.239.228.482-.038.245-.376.44-.52.3-1.16.259-.642-.042-1.3-.423-.221-.128-.412-.29-.19-.158-.352-.353l.458-.265q.082.18.259.35.176.17.432.319.446.258.855.29.412.035.748-.16.31-.179.265-.406-.04-.227-.428-.451l-.408-.237.39-.225.427.247q.35.202.675.23.326.026.59-.127.27-.156.22-.35-.044-.195-.401-.401-.195-.113-.461-.218-.266-.104-.623-.208l.423-.244q.346.112.618.227.275.115.484.236.54.313.609.638.07.323-.348.565-.291.168-.66.189-.367.019-.752-.114z"></path></g></svg></g></g><g opacity="1"><g id="da4e4c44-e277-40b6-b346-082191dda26f" transform="translate(0 0)"><g><polygon points="112 268, 176 305, 112 342, 48 305" fill="#ececed"></polygon><polygon points="48 342, 112 379, 112 342, 48 305" fill="#d2d2d4" stroke="#83838a"></polygon><polygon points="112 379, 176 342, 176 305, 112 342" fill="#b8b8bb" stroke="#83838a"></polygon><polygon points="112 268, 48 305, 48 342, 112 379, 176 342, 176 305" fill="none" stroke="#000000" stroke-width="2"></polygon></g></g></g><g opacity="1"><g id="08c575bb-b05e-4b07-aeed-348c248feea5" transform="translate(0 0)"><svg x="-112" y="379" height="94" width="97" fill-rule="evenodd"><path d="M0 18.6v18.6l32.333 18.6h32.334L97 37.2V18.6L64.667 0H32.333L0 18.6z" fill="#ececed"></path><path d="M64.667 55.8L97 37.2v37.2L64.667 93V55.8z" fill="#b8b8bb"></path><path d="M32.333 55.8h32.334V93H32.333V55.8zM0 37.2v37.2L32.333 93V55.8L0 37.2z" fill="#d2d2d4"></path><g fill="none" stroke="#83838a" stroke-width="1.04"><path d="M.955 37.877L32.333 55.8h32.334l31.378-17.923M32.333 55.8v36.211M64.667 55.8v36.574"></path></g><path d="M97 18.6v55.8L64.667 93H32.333L0 74.4V18.6L32.333 0h32.334L97 18.6zM32.865 1.989L1.989 19.751v53.498l30.876 17.762h31.27l30.876-17.762V19.751L64.135 1.989h-31.27z" fill="#000000"></path><path d="M69.912 15.583c11.818 6.798 11.818 17.836 0 24.635-11.817 6.798-31.007 6.798-42.824 0-11.818-6.799-11.818-17.837 0-24.635 11.817-6.799 31.007-6.799 42.824 0z" fill="#4286c5"></path><path d="M49.584 14.774c1.824 1.049 1.824 2.753 0 3.802-1.824 1.05-4.786 1.05-6.61 0-1.824-1.049-1.824-2.753 0-3.802 1.824-1.05 4.786-1.05 6.61 0zM60.451 21.025c1.825 1.049 1.825 2.753 0 3.803-1.824 1.049-4.786 1.049-6.61 0-1.824-1.05-1.824-2.754 0-3.803s4.786-1.049 6.61 0zM71.319 27.276c1.824 1.05 1.824 2.754 0 3.803-1.825 1.049-4.787 1.049-6.611 0-1.824-1.049-1.824-2.753 0-3.803 1.824-1.049 4.786-1.049 6.611 0zM38.497 33.654c1.824 1.05 1.824 2.754 0 3.803-1.825 1.05-4.787 1.05-6.611 0-1.824-1.049-1.824-2.753 0-3.803 1.824-1.049 4.786-1.049 6.611 0z" fill="#fff"></path><path d="M47.458 15.878c.453.26.393.717-.133 1.02-.526.303-1.32.337-1.773.076-.452-.26-.392-.717.133-1.019.526-.303 1.321-.337 1.773-.077z" fill="#fff"></path><path d="M48.111 15.621c1.012.582 1.012 1.526 0 2.108-1.011.582-2.653.582-3.664 0-1.012-.582-1.012-1.526 0-2.108 1.011-.582 2.653-.582 3.664 0zM58.978 21.872c1.012.582 1.012 1.527 0 2.108-1.011.582-2.653.582-3.664 0-1.012-.581-1.012-1.526 0-2.108 1.011-.581 2.653-.581 3.664 0zM69.846 28.124c1.011.581 1.011 1.526 0 2.108-1.012.582-2.654.582-3.665 0-1.011-.582-1.011-1.527 0-2.108 1.011-.582 2.653-.582 3.665 0z" fill="#4286c5"></path><path d="M37.024 34.502c1.011.582 1.011 1.526 0 2.108-1.012.582-2.654.582-3.665 0-1.011-.582-1.011-1.526 0-2.108 1.011-.582 2.653-.582 3.665 0z" fill="#fff"></path><g fill="#fff"><path d="M52.301 25.172L37.719 33.56l.482.834 14.584-8.388-.484-.834z"></path><path d="M46.993 26.089l6.654-1.146-4.324 5.168c.189-1.691-.757-3.313-2.33-4.022z" stroke="#fff" stroke-width=".36"></path></g><g fill="#fff"><path d="M43.488 19.937l-6.057 13.797.886.387 6.056-13.798-.885-.386z"></path><path d="M39.76 23.812l4.676-4.854-.405 6.716c-.855-1.474-2.582-2.221-4.271-1.862z" stroke="#fff" stroke-width=".36"></path></g><g fill="#fff"><path d="M61.953 30.061l-23.985 3.483.14.955 23.985-3.486-.14-.952z"></path><path d="M56.68 28.957l6.608 1.387-5.936 3.209c.804-1.503.526-3.358-.672-4.596z" stroke="#fff" stroke-width=".36"></path></g><path d="M37.96 33.977l13.12-7.547M37.873 33.927l5.792-13.134M38.037 34.022l22.478-3.281" fill="#fff" stroke="#fff" stroke-width="1.93"></path></svg></g></g><g opacity="1"><g id="f440a498-4cd3-46ef-b35d-819456057b68" transform="translate(0 0)"><g><polygon points="-256 481, -192 518, -256 555, -320 518" fill="#ececed"></polygon><polygon points="-320 555, -256 592, -256 555, -320 518" fill="#d2d2d4" stroke="#83838a"></polygon><polygon points="-256 592, -192 555, -192 518, -256 555" fill="#b8b8bb" stroke="#83838a"></polygon><polygon points="-256 481, -320 518, -320 555, -256 592, -192 555, -192 518" fill="none" stroke="#000000" stroke-width="2"></polygon></g></g></g></g><g pointer-events="auto"></g><g pointer-events="auto"><g opacity="1"><g id="259ef289-48d1-48c4-9d32-e31b71537742" transform="translate(0 0)"><svg x="112" y="305" overflow="visible"><g transform="scale(0.8944271909999159) matrix(0.707 0.409 -0.707 0.409 0 0)"><svg width="100" height="100" x="-50" y="-50" style="fill:#ffffff"><svg data-name="Layer 1" xmlns="http://www.w3.org/2000/svg" width="100" height="100" viewBox="0 0 100 100"><g><circle cx="50" cy="51.25" r="30.43" fill="#9d5025"/><circle cx="50" cy="48.75" r="30.43" fill="#f58536"/><path fill="#fff" d="M58.88 24.17v11.05H41.12V24.17z"/><g fill="#fff"><path d="M72.62 56.15v9h-9v-9zM61.24 56.15v9h-9v-9z"/></g><path fill="#fff" d="M47.39 56.15v9h-9v-9zM36.01 56.15v9h-9v-9z"/><path fill="#fff" d="M30.7 48.36h1.62v8.83H30.7z"/><path fill="#fff" d="M30.7 48.36h13v1.62h-13z"/><path fill="#fff" d="M42.08 48.36h1.62v8.83h-1.62zM55.93 48.36h1.62v8.83h-1.62z"/><path fill="#fff" d="M55.93 48.36h13v1.62h-13z"/><path fill="#fff" d="M67.31 48.36h1.62v8.83h-1.62zM36.4 42.06h1.62v7.11H36.4zM49.19 33.59h1.62v8.6h-1.62z"/><path fill="#fff" d="M36.4 41.38h26.87V43H36.4z"/><path fill="#fff" d="M61.65 42.06h1.62v7.11h-1.62z"/></g></svg></svg></g></svg></g></g><g opacity="1"><g id="12a8ccce-1c01-4a1c-9634-ba35b1246f3c" transform="translate(0 0)"><svg x="-256" y="518" overflow="visible"><g transform="scale(0.8944271909999159) matrix(0.707 0.409 -0.707 0.409 0 0)"><svg width="100" height="100" x="-50" y="-50" style="fill:#ffffff"><svg data-name="Layer 1" xmlns="http://www.w3.org/2000/svg" width="100" height="100" viewBox="0 0 100 100"><g><circle cx="50" cy="51.25" r="30.43" fill="#9d5025"/><circle cx="50" cy="48.75" r="30.43" fill="#f58536"/><path fill="#fff" d="M24.42 39.87h11.05v17.76H24.42zM59.73 27.74h9.86v9.86h-9.86zM59.73 43.82h9.86v9.86h-9.86zM59.73 59.91h9.86v9.86h-9.86z"/><path fill="#fff" d="M57.01 50.05l1.64-.81 1.08-.53-1.08-.54-1.46-.72-4.4-2.17v2.17H39.58l15.01-9.61 1.19 1.84 2.49-4.2.73-1.24.73-1.22-1.4.17-1.59.18-4.7.55 1.13 1.74-18.41 11.79-2.03 1.3 2.42 1.54 18.02 11.55-1.13 1.74 4.7.55 1.59.18 1.4.17-.73-1.22-.73-1.24-2.49-4.2-1.19 1.84-15.01-9.61h13.21v2.09l4.22-2.09z"/></g></svg></svg></g></svg></g></g><g opacity="1"><g id="e894012d-e7c0-4325-994d-1a594b3e972f" transform="translate(0 0)"><svg x="-512" y="592" overflow="visible"><g transform=" "><svg width="100" height="100" x="-50" y="-50" style="fill:#ffffff"><svg data-name="Layer 1" xmlns="http://www.w3.org/2000/svg" width="100" height="100" viewBox="0 0 100 100"><g><path fill="#b7ca9d" d="M86.24 65.43L50.01 60.1l-36.25 5.33L49.99 91l36.25-25.57z"/><path fill="#4b612c" d="M21.02 64.81l6.12 1.83 14.39-22.07L27.14 22.5l-6.12 2.35v39.96z"/><path fill="#759c3e" d="M48.82 62.91l-21.68 3.81V22.5l21.68 4.88v35.53z"/><path fill="#4b612c" d="M39.15 70.33L30.7 67.8V13.23L39.15 9l25.04 32.28-25.04 29.05z"/><path fill="#759c3e" d="M68.11 63.61L39.15 70.4V9l28.96 11.29v43.32z"/><path fill="#4b612c" d="M49.99 78.28L13.76 65.43v7.46L49.99 91V78.28z"/><path fill="#759c3e" d="M86.24 72.88L49.99 91V78.28l36.25-12.85v7.45z"/><path fill="#b7ca9d" d="M76.06 53.08h-8.79l-25.04 1.7L50 73.59l26.06-20.51z"/><path fill="#4b612c" d="M42.23 71.26L50 73.59l-.01-17.97-7.76-.84v16.48z"/><path fill="#759c3e" d="M76.06 53.08l-26.07 2.54.01 17.97 26.06-7.85V53.08z"/></g></svg></svg></g></svg></g></g><g opacity="1"><g id="b9c413bc-f899-43f2-93ec-6ef25a4de593" transform="translate(0 0)"><svg x="-592" y="657" overflow="visible"><g transform=" "><svg width="100" height="100" x="-50" y="-50" style="fill:#ffffff"><svg data-name="Layer 1" xmlns="http://www.w3.org/2000/svg" width="100" height="100" viewBox="0 0 100 100"><g><path d="M89.17 51.89a7 7 0 0 1-.83-1.25 27.92 27.92 0 0 1-2.66-8.05 33.72 33.72 0 0 0-16-22.28c-6-3.69-12.09-6.09-19.31-5.16-9.55 1.23-17.64 4.79-23.2 13.06a65.9 65.9 0 0 0-7.36 15c-1.71 4.82-1.5 10.1-3.67 14.79a21.24 21.24 0 0 1-1.59 2.69c-1.5 2.29-3.41 4.41-4.48 6.88-2.64 6.07-1.19 9.58 4.69 12.6.6.31 1.22.59 1.85.84 6.86 2.78 22.88 6.22 32.82 2.39a34 34 0 0 0 6.66-2.85C64 76.3 71.9 72 79.76 67.72a33.12 33.12 0 0 0 9.52-7.22c2.55-2.95 2.48-5.7-.11-8.61z" fill="#4b612c"/><path d="M61.25 18.56a35 35 0 0 1 11.5 6.76c2.53 2 9.26 8.93 10.81 17.63.16 1.29.26 2.6.51 3.87a5.85 5.85 0 0 0 .85 1.54l.81 2s1.48 2.35 2.29 3.49c1 1.42 1.4 2.88.27 4.36-2.51 3.27-5.82 5.54-9.88 7.65l.41-4.27-2.66-.76c-1 2.28-.39 4 2.13 5.24-2.38 1.26-4.46 2.35-6.53 3.45-6.36 3.4-12.67 6.89-19.08 10.2a30.53 30.53 0 0 1-15.14 3.49 58.78 58.78 0 0 1-17.8-3.43c-2.6-.93-4.67-5-3.87-7.57a2.58 2.58 0 0 1 2.93-1.81c4.46.47 8.91 1 13.36 1.54 4.95.6 9.89 1.67 14.84 1.71 5.61 0 11-1.71 16.24-3.89-1.59.11-3.18.2-4.77.32-4.42.33-8.87.47-13.26 1.05-5.45.72-10.61-.47-15.79-1.76a16.51 16.51 0 0 1-10.09-6.87c-.93-1.39-1.5-3-.78-4.5.58.52 1.22 1.49 1.72 1.43s1.36-.94 1.63-1.63c.68-1.77 1.14-3.63 1.66-5.46a98.49 98.49 0 0 1 2.81-9.83c2.32-5.8 4.77-11.59 8.64-16.58a34.67 34.67 0 0 1 4.77-5.21c2.32-2 5.33-2.68 8.27-3 3.49-.33 7-.16 10.56-.19.2 0 .4.17.6.27z" fill="#759c3e"/><path d="M83.56 42.95a40.93 40.93 0 0 0-2.33-4.43 11.39 11.39 0 0 0-18.69.06c-2.92 4.09-4.28 8.76-5.06 13.64-.24 1.46-.41 2.94-.67 4.81a16.81 16.81 0 0 1-2.27-8.3c-.28-5.89.56-11.58 4.24-16.49 2.63-3.51 5.74-6.37 10.29-7a20.29 20.29 0 0 1 3.67.12c1.39 1.2 3.05 2.2 4.13 3.63a35.73 35.73 0 0 1 6.4 12 15.08 15.08 0 0 1 .29 1.96z" fill="#b7ca9d"/><path d="M61.25 18.56c-5.07 1.41-8 5.16-10.42 9.48-3.46 6.23-6 12.77-5.86 20a30.1 30.1 0 0 0 2.57 12c.18.4.31.82.56 1.48a5 5 0 0 1-4.5-2.31 14.76 14.76 0 0 1-2.6-9.12c.21-9.33 2-18.26 8.1-25.77a39.76 39.76 0 0 1 4.37-4.47 7.84 7.84 0 0 1 5.76-2z" fill="#b7ca9d"/><path d="M85.73 50.38c0 2.3-1.59 3.51-3.13 4.74-7.72 6.17-16.71 9.44-26.3 11.21-4.25.79-8.53 1.48-12.82 2-5.23.63-10.12-1.19-15.06-2.48-2-.53-4-1.18-6.07-1.77 0-.22 0-.43.07-.65a16.21 16.21 0 0 1 2.7 0c4 .69 7.93 1.72 11.94 2.11a52.89 52.89 0 0 0 11.08 0 80.61 80.61 0 0 0 20.16-4.72 86.55 86.55 0 0 0 10.92-5.32c2.78-1.56 5.35-3.53 5.7-7.15zM76.15 60.84c1.92-1.15 3.79-2.39 5.77-3.41a8.13 8.13 0 0 1 2.67-.36l.19.47-6 4.06z" fill="#b7ca9d"/></g></svg></svg></g></svg></g></g></g><g pointer-events="auto"><g opacity="1"><g id="f2036749-761c-4a7b-befa-d07ef4b6ded4" transform="translate(0 0)"><svg x="-432" y="490" overflow="visible"><text stroke="#000000" stroke-width="2" font-family="Open Sans" y="36.5" font-size="25pt" fill="#ffffff" font-weight="bold" transform="matrix(0.707 0.409 -0.707 0.409 0 0)" xml:space="preserve"><tspan x="8" dy="0">Dummy Target Group</tspan></text><text font-family="Open Sans" y="36.5" font-size="25pt" fill="#ffffff" font-weight="bold" transform="matrix(0.707 0.409 -0.707 0.409 0 0)" xml:space="preserve"><tspan x="8" dy="0">Dummy Target Group</tspan></text></svg></g></g><g opacity="1"><g id="3bbcc302-9d75-4c69-9229-2d564afc6166" transform="translate(0 0)"><svg x="0" y="315" overflow="visible"><text stroke="#000000" stroke-width="2" font-family="Open Sans" y="36.5" font-size="25pt" fill="#ffffff" font-weight="bold" transform="matrix(0.707 0.409 -0.707 0.409 0 0)" xml:space="preserve"><tspan x="8" dy="0">Listener (443)</tspan></text><text font-family="Open Sans" y="36.5" font-size="25pt" fill="#ffffff" font-weight="bold" transform="matrix(0.707 0.409 -0.707 0.409 0 0)" xml:space="preserve"><tspan x="8" dy="0">Listener (443)</tspan></text></svg></g></g><g opacity="1"><g id="bb3ec9b9-df67-4696-927f-f0ecd08ae12f" transform="translate(0 0)"><svg x="-240" y="379" overflow="visible"><text stroke="#000000" stroke-width="2" font-family="Open Sans" y="36.5" font-size="25pt" fill="#ffffff" font-weight="bold" transform="matrix(0.707 0.409 -0.707 0.409 0 0)" xml:space="preserve"><tspan x="8" dy="0">Application Load Balancer</tspan></text><text font-family="Open Sans" y="36.5" font-size="25pt" fill="#ffffff" font-weight="bold" transform="matrix(0.707 0.409 -0.707 0.409 0 0)" xml:space="preserve"><tspan x="8" dy="0">Application Load Balancer</tspan></text></svg></g></g><g opacity="1"><g id="f108944d-72b4-4b13-8b91-ac5c9822ff75"><svg x="64" y="111" overflow="visible"><text stroke="#000000" stroke-width="2" font-family="Open Sans" y="36.5" font-size="25pt" fill="#ffffff" font-weight="bold" transform="matrix(0.707 0.409 -0.707 0.409 0 0)" xml:space="preserve"><tspan x="8" dy="0">example.production-apps.amaysim.net</tspan></text><text font-family="Open Sans" y="36.5" font-size="25pt" fill="#ffffff" font-weight="bold" transform="matrix(0.707 0.409 -0.707 0.409 0 0)" xml:space="preserve"><tspan x="8" dy="0">example.production-apps.amaysim.net</tspan></text></svg></g></g><g opacity="1"><g id="3ee49200-cf6e-48cc-b63c-722a12cc037a"><svg x="-476" y="613" overflow="visible"><text stroke="#000000" stroke-width="2" font-family="Open Sans" y="36.5" font-size="25pt" fill="#ffffff" font-weight="bold" transform="matrix(0.707 0.409 -0.707 0.409 0 0)" xml:space="preserve"><tspan x="8" dy="0">CloudWatch Logs</tspan></text><text font-family="Open Sans" y="36.5" font-size="25pt" fill="#ffffff" font-weight="bold" transform="matrix(0.707 0.409 -0.707 0.409 0 0)" xml:space="preserve"><tspan x="8" dy="0">CloudWatch Logs</tspan></text></svg></g></g><g opacity="1"><g id="a7e8435d-a4f5-44a9-bba3-597bfc2d5597"><svg x="-556" y="678" overflow="visible"><text stroke="#000000" stroke-width="2" font-family="Open Sans" y="36.5" font-size="25pt" fill="#ffffff" font-weight="bold" transform="matrix(0.707 0.409 -0.707 0.409 0 0)" xml:space="preserve"><tspan x="8" dy="0">IAM Role</tspan></text><text font-family="Open Sans" y="36.5" font-size="25pt" fill="#ffffff" font-weight="bold" transform="matrix(0.707 0.409 -0.707 0.409 0 0)" xml:space="preserve"><tspan x="8" dy="0">IAM Role</tspan></text></svg></g></g></g><g></g></g></svg>