<?xml version="1.0" standalone="no"?>
<!DOCTYPE svg PUBLIC "-//W3C//DTD SVG 1.1//EN"
  "http://www.w3.org/Graphics/SVG/1.1/DTD/svg11.dtd">
<svg version="1.1" xmlns="http://www.w3.org/2000/svg" xmlns:xlink="http://www.w3.org/1999/xlink" width="1920" height="1080" viewBox="-1040.888888888889 -32 1889.7777777777778 1063" id="ccdiagram"><filter id="grayscale"><feColorMatrix type="matrix" values="0.3333 0.3333 0.3333 0 0 0.3333 0.3333 0.3333 0 0 0.3333 0.3333 0.3333 0 0 0 0 0 1 0"></feColorMatrix></filter><defs><style type="text/css">@import url(&#x27;https://fonts.googleapis.com/css?family=Open+Sans:400,700|Inconsolata:400&#x27;);</style></defs><g><g style="pointer-events:none"><g><pattern id="gridPatternMinor" x="0" y="37" width="128" height="74" patternUnits="userSpaceOnUse"><path d="M 0 0 L 128 74" stroke="#eee" stroke-width="1"></path><path d="M 128 0 L 0 74" stroke="#eee" stroke-width="1"></path></pattern><polygon points="0 0, 768 444, -192 999, -960 555" fill="url(#gridPatternMinor)"></polygon></g><polygon points="-960 555, -960 565, -192 1009, -192 999" stroke-linejoin="round" stroke="#54626f" stroke-width="1" fill="#f9f9f9"></polygon><polygon points="-192 1009, 768 454, 768 444, -192 999" stroke-linejoin="round" stroke="#54626f" stroke-width="1" fill="#e2e2e2"></polygon></g><g pointer-events="auto"></g><g style="pointer-events:none"><g><pattern id="gridPatternMajor" x="0" y="37" width="128" height="74" patternUnits="userSpaceOnUse"><path d="M 64 0 L 128 37 64 74 0 37 z" stroke="#54626f" stroke-width="1" fill="none"></path></pattern><polygon points="0 0, 768 444, -192 999, -960 555" fill="url(#gridPatternMajor)"></polygon></g></g><g pointer-events="auto"></g><g></g><g pointer-events="auto"></g><g></g><g pointer-events="auto"><g opacity="1"><g id="bf3bcdb1-3b18-4f78-a5eb-6084f1a6148a"><svg x="-224" y="537" overflow="visible"><polygon points="0 0, 128 74, 64 111, -64 37" fill="#f5b720"></polygon><polygon points="0 0, 128 74, 64 111, -64 37" fill="none" stroke-width="20" stroke="#f5b720" opacity="1"></polygon><g cursor="nwse-resize"><polygon points="0 0, -19 -11, 13 -30, -83 -11, -115 44, -83 26, -64 37" fill="#f5b720"></polygon><polygon points="128 74, 147 85, 179 67, 147 122, 51 141, 83 122, 64 111" fill="#f5b720"></polygon></g></svg></g></g></g><g pointer-events="none"></g><g pointer-events="auto"><g><g cursor="cell"><line x1="-32" y1="500" x2="-118" y2="549" stroke="red" stroke-width="8" opacity="0"></line><line x1="-32" y1="500" x2="-118" y2="549" stroke="#000000" stroke-width="2" stroke-linecap="round"></line><polygon points="-128 555, -102 550, -116 548, -119 540, -128 555" stroke-linejoin="round" fill="#000000" stroke="#000000" stroke-width="1"></polygon></g></g><g><g cursor="cell"><line x1="160" y1="389" x2="74" y2="438" stroke="red" stroke-width="8" opacity="0"></line><line x1="160" y1="389" x2="74" y2="438" stroke="#000000" stroke-width="2" stroke-dasharray="8,6" stroke-linecap="butt"></line><polygon points="64 444, 90 439, 76 437, 73 429, 64 444" stroke-linejoin="round" fill="#000000" stroke="#000000" stroke-width="1"></polygon></g></g><g><g><g cursor="cell"><line x1="-416" y1="463" x2="-319" y2="519" stroke="red" stroke-width="8" opacity="0"></line><line x1="-416" y1="463" x2="-319" y2="519" stroke="#000000" stroke-width="2" stroke-linecap="round"></line><polygon points="-309 524, -318 510, -322 517, -335 519, -309 524" stroke-linejoin="round" fill="#000000" stroke="#000000" stroke-width="1"></polygon></g></g></g></g><g pointer-events="auto"><g opacity="1"><g id="c1f4e06a-452e-4ca9-be1e-17f3db1b6931" transform="translate(0 0)"><g><polygon points="192 296, 256 333, 192 370, 128 333" fill="#ececed"></polygon><polygon points="128 370, 192 407, 192 370, 128 333" fill="#d2d2d4" stroke="#83838a"></polygon><polygon points="192 407, 256 370, 256 333, 192 370" fill="#b8b8bb" stroke="#83838a"></polygon><polygon points="192 296, 128 333, 128 370, 192 407, 256 370, 256 333" fill="none" stroke="#000000" stroke-width="2"></polygon></g></g></g><g opacity="1"><g id="bc1a8375-80d3-4732-9709-d864af9cccaa" transform="translate(0 0)"><g><polygon points="0 407, 64 444, 0 481, -64 444" fill="#ececed"></polygon><polygon points="-64 481, 0 518, 0 481, -64 444" fill="#d2d2d4" stroke="#83838a"></polygon><polygon points="0 518, 64 481, 64 444, 0 481" fill="#b8b8bb" stroke="#83838a"></polygon><polygon points="0 407, -64 444, -64 481, 0 518, 64 481, 64 444" fill="none" stroke="#000000" stroke-width="2"></polygon></g></g></g><g opacity="1"><g id="c53a4bb9-efbd-4ef7-ab36-54d623a700e4" transform="translate(0 0)"><g><polygon points="-448 370, -384 407, -448 444, -512 407" fill="#ececed"></polygon><polygon points="-512 444, -448 481, -448 444, -512 407" fill="#d2d2d4" stroke="#83838a"></polygon><polygon points="-448 481, -384 444, -384 407, -448 444" fill="#b8b8bb" stroke="#83838a"></polygon><polygon points="-448 370, -512 407, -512 444, -448 481, -384 444, -384 407" fill="none" stroke="#000000" stroke-width="2"></polygon></g></g></g><g opacity="1"><g id="0b58aa9a-9258-4a51-b52a-ae0d72a86841" transform="translate(0 0)"><g><polygon points="-192 518, -128 555, -192 592, -256 555" fill="#ececed"></polygon><polygon points="-256 592, -192 629, -192 592, -256 555" fill="#d2d2d4" stroke="#83838a"></polygon><polygon points="-192 629, -128 592, -128 555, -192 592" fill="#b8b8bb" stroke="#83838a"></polygon><polygon points="-192 518, -256 555, -256 592, -192 629, -128 592, -128 555" fill="none" stroke="#000000" stroke-width="2"></polygon></g></g></g></g><g pointer-events="auto"></g><g pointer-events="auto"><g opacity="1"><g id="8f561355-f7d5-4886-8499-5acfbf3ba033" transform="translate(0 0)"><svg x="0" y="444" overflow="visible"><g transform="scale(0.8944271909999159) matrix(0.707 0.409 -0.707 0.409 0 0)"><svg width="100" height="100" x="-50" y="-50" style="fill:#ffffff"><svg data-name="Layer 1" xmlns="http://www.w3.org/2000/svg" width="100" height="100" viewBox="0 0 100 100"><g><circle cx="50" cy="51.25" r="30.43" fill="#9d5025"/><circle cx="50" cy="48.75" r="30.43" fill="#f58536"/><path fill="#fff" d="M24.42 39.87h11.05v17.76H24.42zM59.73 27.74h9.86v9.86h-9.86zM59.73 43.82h9.86v9.86h-9.86zM59.73 59.91h9.86v9.86h-9.86z"/><path fill="#fff" d="M57.01 50.05l1.64-.81 1.08-.53-1.08-.54-1.46-.72-4.4-2.17v2.17H39.58l15.01-9.61 1.19 1.84 2.49-4.2.73-1.24.73-1.22-1.4.17-1.59.18-4.7.55 1.13 1.74-18.41 11.79-2.03 1.3 2.42 1.54 18.02 11.55-1.13 1.74 4.7.55 1.59.18 1.4.17-.73-1.22-.73-1.24-2.49-4.2-1.19 1.84-15.01-9.61h13.21v2.09l4.22-2.09z"/></g></svg></svg></g></svg></g></g><g opacity="1"><g id="f2f815d9-eb22-46c1-aa0c-7e4303939791" transform="translate(0 0)"><svg x="-192" y="555" overflow="visible"><g transform="scale(0.8944271909999159) matrix(0.707 0.409 -0.707 0.409 0 0)"><svg width="100" height="100" x="-50" y="-50" style="fill:#ffffff"><svg data-name="Layer 1" xmlns="http://www.w3.org/2000/svg" width="100" height="100" viewBox="0 0 100 100"><g><path fill="#9d5025" d="M19.64 22.51L16 24.32v51.36l3.64 1.81 14.34-26.42-14.34-28.56zM30.72 31.78l5.36-7.59L60.1 34.87l-5.6.89-23.78-3.98zM26.56 68.77l5.9 8.11L60.1 64.95l-5.34-.83-28.2 4.65z"/><path fill="#f58536" d="M28.12 75.5l-8.48 1.99V22.51l8.48 1.93V75.5z"/><path fill="#9d5025" d="M23.66 20.5l4.46-2.23 8.4 35.29-8.4 28.17-4.46-2.23v-59zM54.46 64.08l5.64.87 5.16-14.37-5.16-15.71-5.64.89v28.32z"/><path fill="#f58536" d="M36.8 79.28l-8.68 2.45V18.27l8.68 2.46v58.55z"/><path fill="#f58536" d="M66.01 63.84l-37.89 7.04v10.85l37.89-10.7v-7.19zM66.08 36l-37.96-7.21V18.27l37.96 10.77V36z"/><path fill="#f58536" d="M60.1 27.34l6.09 1.68v42.01L60.1 72.7V27.34z"/><path fill="#6b3a19" d="M84 44.45l-16.3.77-5.76-.39 16.48-13.28L84 44.45z"/><path fill="#9d5025" d="M61.94 44.83l16.48-.93V31.55l-16.48 2.67v10.61z"/><path fill="#6b3a19" d="M46.43 43.79l16.7-16.83 8.49 16.26-17.31 1.1-7.88-.53z"/><path fill="#9d5025" d="M46.43 43.79l16.7-1.42V26.96l-16.7 3.91v12.92zM61.94 55.39l22.06.38-5.58 12.9L61.94 66V55.39z"/><path fill="#9d5025" d="M46.43 56.43l25.19.58-8.49 16.25-16.7-3.9V56.43z"/><path fill="#fbbf93" d="M46.43 56.43l16.7 1.43 8.49-.85-17.31-1.11-7.88.53zM84 55.77l-16.3-.76-5.76.38 16.48.94 5.58-.56z"/><path fill="#f58536" d="M78.42 43.9l5.58.55V33.22l-5.58-1.67V43.9zM71.62 43.22l-8.49-.85V26.96l8.49 2.55v13.71zM78.42 56.33l5.58-.56V67l-5.58 1.67V56.33zM71.62 57.01l-8.49.85v15.4l8.49-2.54V57.01z"/></g></svg></svg></g></svg></g></g><g opacity="1"><g id="1b2006e9-b932-499b-832d-00a93ac447e3" transform="translate(0 0)"><svg x="192" y="333" overflow="visible"><g transform="scale(0.8944271909999159) matrix(0.707 0.409 -0.707 0.409 0 0)"><svg width="100" height="100" x="-50" y="-50" style="fill:#ffffff"><svg data-name="Layer 1" xmlns="http://www.w3.org/2000/svg" width="100" height="100" viewBox="0 0 100 100"><g><circle cx="50" cy="51.25" r="30.43" fill="#9d5025"/><circle cx="50" cy="48.75" r="30.43" fill="#f58536"/><path fill="#fff" d="M58.88 24.17v11.05H41.12V24.17z"/><g fill="#fff"><path d="M72.62 56.15v9h-9v-9zM61.24 56.15v9h-9v-9z"/></g><path fill="#fff" d="M47.39 56.15v9h-9v-9zM36.01 56.15v9h-9v-9z"/><path fill="#fff" d="M30.7 48.36h1.62v8.83H30.7z"/><path fill="#fff" d="M30.7 48.36h13v1.62h-13z"/><path fill="#fff" d="M42.08 48.36h1.62v8.83h-1.62zM55.93 48.36h1.62v8.83h-1.62z"/><path fill="#fff" d="M55.93 48.36h13v1.62h-13z"/><path fill="#fff" d="M67.31 48.36h1.62v8.83h-1.62zM36.4 42.06h1.62v7.11H36.4zM49.19 33.59h1.62v8.6h-1.62z"/><path fill="#fff" d="M36.4 41.38h26.87V43H36.4z"/><path fill="#fff" d="M61.65 42.06h1.62v7.11h-1.62z"/></g></svg></svg></g></svg></g></g><g opacity="1"><g id="3ae9b772-c05d-41d0-811f-9521504b169f" transform="translate(0 0)"><svg x="-448" y="407" overflow="visible"><g transform="scale(0.8944271909999159) matrix(0.707 0.409 -0.707 0.409 0 0)"><svg width="100" height="100" x="-50" y="-50" style="fill:#ffffff"><svg data-name="Layer 1" xmlns="http://www.w3.org/2000/svg" width="100" height="100" viewBox="0 0 100 100"><g><path fill="#9d5025" d="M59.03 69.58V59.11l-4.46-4.45-2.94-2.95 2.94-2.94 4.46-4.46V33.59h5.23v-3.42L50 20.38l-14.26 9.79v3.42h5.23v10.72l4.46 4.46 2.94 2.94-2.94 2.95-4.46 4.45v10.47l-5.23-3.17v3.42L50 84.09l14.26-14.26v-3.42l-5.23 3.17z"/><path fill="#9d5025" d="M41.71 51.71v-3.42l-14.26-4.02h-13v14.88h13v6.82l14.26-14.26zM85.55 44.27H72.56l-14.27 4.02v3.42l14.27 14.26v-6.82h12.99V44.27z"/><path fill="#f58536" d="M59.03 66.16V55.69l-4.46-4.46-2.94-2.94 2.94-2.95 4.46-4.45V30.17h5.23L50 15.91 35.74 30.17h5.23v10.72l4.46 4.45 2.94 2.95-2.94 2.94-4.46 4.46v10.72h-5.23L50 80.67l14.26-14.26h-5.23v-.25z"/><path fill="#f58536" d="M41.71 48.29L27.45 34.02v6.83h-13v14.88h13v6.82l14.26-14.26zM85.55 40.85H72.56v-6.83L58.29 48.29l14.27 14.26v-6.82h12.99V40.85z"/></g></svg></svg></g></svg></g></g></g><g pointer-events="auto"><g opacity="1"><g id="ca9a44a0-f098-426f-9541-81461f83e7a3" transform="translate(0 0)"><svg x="-112" y="453" overflow="visible"><text stroke="#000000" stroke-width="2" font-family="Open Sans" y="36.5" font-size="25pt" fill="#ffffff" font-weight="bold" transform="matrix(0.707 0.409 -0.707 0.409 0 0)" xml:space="preserve"><tspan x="8" dy="0">Target Group</tspan></text><text font-family="Open Sans" y="36.5" font-size="25pt" fill="#ffffff" font-weight="bold" transform="matrix(0.707 0.409 -0.707 0.409 0 0)" xml:space="preserve"><tspan x="8" dy="0">Target Group</tspan></text></svg></g></g><g opacity="1"><g id="bf77f9cb-710c-4a0c-9a33-bb357b57b8d7"><svg x="-288" y="574" overflow="visible"><text stroke="#000000" stroke-width="2" font-family="Open Sans" y="36.5" font-size="25pt" fill="#ffffff" font-weight="bold" transform="matrix(0.707 0.409 -0.707 0.409 0 0)" xml:space="preserve"><tspan x="8" dy="0">ECS Service</tspan></text><text font-family="Open Sans" y="36.5" font-size="25pt" fill="#ffffff" font-weight="bold" transform="matrix(0.707 0.409 -0.707 0.409 0 0)" xml:space="preserve"><tspan x="8" dy="0">ECS Service</tspan></text></svg></g></g><g opacity="1"><g id="a7818ef0-7b2e-4bba-96b9-46907ba3dc21" transform="translate(0 0)"><svg x="80" y="342" overflow="visible"><text stroke="#000000" stroke-width="2" font-family="Open Sans" y="36.5" font-size="25pt" fill="#ffffff" font-weight="bold" transform="matrix(0.707 0.409 -0.707 0.409 0 0)" xml:space="preserve"><tspan x="8" dy="0">Listener Rule</tspan></text><text font-family="Open Sans" y="36.5" font-size="25pt" fill="#ffffff" font-weight="bold" transform="matrix(0.707 0.409 -0.707 0.409 0 0)" xml:space="preserve"><tspan x="8" dy="0">Listener Rule</tspan></text></svg></g></g><g opacity="1"><g id="584d54c1-7777-4a71-993d-3773ea043aa4"><svg x="-208" y="768" overflow="visible"><text stroke="#000000" stroke-width="2" font-family="Open Sans" y="36.5" font-size="25pt" fill="#ffffff" font-weight="bold" transform="matrix(0.707 -0.409 0.707 0.409 0 0)" xml:space="preserve"><tspan x="8" dy="0">Application Autoscaling</tspan></text><text font-family="Open Sans" y="36.5" font-size="25pt" fill="#ffffff" font-weight="bold" transform="matrix(0.707 -0.409 0.707 0.409 0 0)" xml:space="preserve"><tspan x="8" dy="0">Application Autoscaling</tspan></text></svg></g></g><g opacity="1"><g id="5d376e45-cea8-4763-9d02-2d6616d3ce3a"><svg x="-592" y="398" overflow="visible"><text stroke="#000000" stroke-width="2" font-family="Open Sans" y="36.5" font-size="25pt" fill="#ffffff" font-weight="bold" transform="matrix(0.707 0.409 -0.707 0.409 0 0)" xml:space="preserve"><tspan x="8" dy="0">Autoscaling Policy</tspan></text><text font-family="Open Sans" y="36.5" font-size="25pt" fill="#ffffff" font-weight="bold" transform="matrix(0.707 0.409 -0.707 0.409 0 0)" xml:space="preserve"><tspan x="8" dy="0">Autoscaling Policy</tspan></text></svg></g></g></g><g></g></g></svg>